<?xml version="1.0" encoding="utf-8"?>
<!-- Generator: Adobe Illustrator 18.0.0, SVG Export Plug-In . SVG Version: 6.00 Build 0)  -->
<!DOCTYPE svg PUBLIC "-//W3C//DTD SVG 1.1//EN" "http://www.w3.org/Graphics/SVG/1.1/DTD/svg11.dtd">
<svg version="1.1" id="Capa_1" xmlns="http://www.w3.org/2000/svg" xmlns:xlink="http://www.w3.org/1999/xlink" x="0px" y="0px"
	 width="19.5px" height="18.6px" viewBox="0 0 19.5 18.6" enable-background="new 0 0 19.5 18.6" xml:space="preserve">
<path d="M12.7,2.2c2.5,0,4.6,2.1,4.6,4.6s-2.1,4.6-4.6,4.6S8.1,9.3,8.1,6.7S10.2,2.2,12.7,2.2 M3.1,17.7l3.6-3.8
	c0.4-0.4,0.5-1,0.2-1.5l1.3-1.3c1.1,1.2,2.7,1.9,4.5,1.9c3.5,0,6.3-2.8,6.3-6.3s-2.8-6.3-6.3-6.3S6.4,3.3,6.4,6.7
	c0,1.3,0.4,2.6,1.2,3.6l-1.4,1.4c-0.5-0.2-1.1-0.2-1.5,0.2l-3.8,3.6c-0.5,0.5-0.5,1.3,0,1.8l0.4,0.4C1.8,18.3,2.6,18.3,3.1,17.7"/>
</svg>
