<?xml version="1.0" encoding="utf-8"?>
<!-- Generator: Adobe Illustrator 18.0.0, SVG Export Plug-In . SVG Version: 6.00 Build 0)  -->
<!DOCTYPE svg PUBLIC "-//W3C//DTD SVG 1.1//EN" "http://www.w3.org/Graphics/SVG/1.1/DTD/svg11.dtd">
<svg version="1.1" id="Capa_2" xmlns="http://www.w3.org/2000/svg" xmlns:xlink="http://www.w3.org/1999/xlink" x="0px" y="0px"
	 width="100px" height="100px" viewBox="0 0 100 100" enable-background="new 0 0 100 100" xml:space="preserve">
<path d="M57.1,50.8h-7.7v27.4H38.1V50.8h-5.4v-9.7h5.4v-6.3c0-4.5,2.1-11.5,11.5-11.5l8.4,0v9.4h-6.1c-1,0-2.4,0.5-2.4,2.6v5.7h8.7
	L57.1,50.8z M78.9,7.2H20.2C12.4,7.2,6,13.6,6,21.4v58.6c0,7.8,6.4,14.2,14.2,14.2h58.7c7.8,0,14.2-6.4,14.2-14.2V21.4
	C93.1,13.6,86.7,7.2,78.9,7.2"/>
</svg>
