<?xml version="1.0" encoding="UTF-8" standalone="no"?>
<svg width="15px" height="15px" viewBox="0 0 15 15" version="1.1" xmlns="http://www.w3.org/2000/svg" xmlns:xlink="http://www.w3.org/1999/xlink" xmlns:sketch="http://www.bohemiancoding.com/sketch/ns">
    <!-- Generator: Sketch 3.2.2 (9983) - http://www.bohemiancoding.com/sketch -->
    <title>categories_close</title>
    <desc>Created with Sketch.</desc>
    <defs></defs>
    <g id="Page-1" stroke="none" stroke-width="1" fill="none" fill-rule="evenodd" sketch:type="MSPage">
        <g id="categories_close" sketch:type="MSLayerGroup" fill="#58331E">
            <path d="M3.31730769,2.38038462 C3.31730769,3.29538462 2.57423077,4.03846154 1.65923077,4.03846154 C0.743076923,4.03846154 0,3.29538462 0,2.38038462 C0,1.46423077 0.743076923,0.721153846 1.65923077,0.721153846 C2.57423077,0.721153846 3.31730769,1.46423077 3.31730769,2.38038462" id="Fill-1" sketch:type="MSShapeGroup"></path>
            <path d="M14.1346154,2.38038462 C14.1346154,3.29538462 13.3915385,4.03846154 12.4765385,4.03846154 C11.5603846,4.03846154 10.8173077,3.29538462 10.8173077,2.38038462 C10.8173077,1.46423077 11.5603846,0.721153846 12.4765385,0.721153846 C13.3915385,0.721153846 14.1346154,1.46423077 14.1346154,2.38038462" id="Fill-3" sketch:type="MSShapeGroup"></path>
            <path d="M1.65923077,14.8557692 C0.743076923,14.8557692 0,14.1126923 0,13.1976923 C0,12.2815385 0.743076923,11.5384615 1.65923077,11.5384615 C2.57423077,11.5384615 3.31730769,12.2815385 3.31730769,13.1976923 C3.31730769,14.1126923 2.57423077,14.8557692 1.65923077,14.8557692" id="Fill-5" sketch:type="MSShapeGroup"></path>
            <path d="M7.06730769,9.44769231 C6.15115385,9.44769231 5.40923077,8.70461538 5.40923077,7.78846154 C5.40923077,6.87230769 6.15115385,6.12923077 7.06730769,6.12923077 C7.98346154,6.12923077 8.72653846,6.87230769 8.72653846,7.78846154 C8.72653846,8.70461538 7.98346154,9.44769231 7.06730769,9.44769231" id="Fill-6" sketch:type="MSShapeGroup"></path>
            <path d="M12.4765385,14.8557692 C11.5603846,14.8557692 10.8173077,14.1126923 10.8173077,13.1976923 C10.8173077,12.2815385 11.5603846,11.5384615 12.4765385,11.5384615 C13.3915385,11.5384615 14.1346154,12.2815385 14.1346154,13.1976923 C14.1346154,14.1126923 13.3915385,14.8557692 12.4765385,14.8557692" id="Fill-9" sketch:type="MSShapeGroup"></path>
        </g>
    </g>
</svg>