<?xml version="1.0" encoding="UTF-8" standalone="no"?>
<svg width="42px" height="33px" viewBox="0 0 42 33" version="1.1" xmlns="http://www.w3.org/2000/svg" xmlns:xlink="http://www.w3.org/1999/xlink" xmlns:sketch="http://www.bohemiancoding.com/sketch/ns">
    <!-- Generator: Sketch 3.2.2 (9983) - http://www.bohemiancoding.com/sketch -->
    <title>notifications_on</title>
    <desc>Created with Sketch.</desc>
    <defs></defs>
    <g id="Page-1" stroke="none" stroke-width="1" fill="none" fill-rule="evenodd" sketch:type="MSPage">
        <path d="M32.0795034,21.947703 C29.8292352,28.3835644 23.7037307,33 16.5,33 C7.38730163,33 0,25.6126984 0,16.5 C0,7.38730163 7.38730163,0 16.5,0 C19.4215573,0 22.1657676,0.759312671 24.546051,2.09135814 C26.3588488,0.775781858 28.5888276,0 31,0 C37.0751322,0 42,4.92486775 42,11 C42,16.7108917 37.6479793,21.4053145 32.0795034,21.947703 L32.0795034,21.947703 Z M23.7488,20.0779375 C23.4752,19.7739375 23.1908,19.3796875 22.898,18.894 C22.604,18.4083125 22.3556,17.8858125 22.1516,17.324125 C21.9476,16.7624375 21.782,16.082 21.6512,15.2828125 C21.5216,14.483625 21.4556,13.6250625 21.4556,12.707125 C21.4556,11.7036875 21.0656,10.7703125 20.2844,9.9081875 C19.5032,9.0460625 18.4796,8.5235625 17.2112,8.3383125 C17.264,8.2124375 17.2916,8.0841875 17.2916,7.9511875 C17.2916,7.6875625 17.198,7.463125 17.0108,7.277875 C16.8236,7.092625 16.5968,7 16.3304,7 C16.0628,7 15.836,7.092625 15.6488,7.277875 C15.4628,7.463125 15.3692,7.6875625 15.3692,7.9511875 C15.3692,8.0841875 15.3956,8.2124375 15.4496,8.3383125 C14.1812,8.5235625 13.1564,9.0460625 12.3752,9.9081875 C11.594,10.7703125 11.204,11.7036875 11.204,12.707125 C11.204,13.6250625 11.1392,14.483625 11.0084,15.2828125 C10.8788,16.082 10.712,16.7624375 10.508,17.324125 C10.3052,17.8858125 10.0556,18.4083125 9.7628,18.894 C9.4688,19.3796875 9.1856,19.7739375 8.912,20.0779375 C8.6372,20.3819375 8.3336,20.672875 8,20.9495625 C8,21.2939375 8.1272,21.5908125 8.3804,21.841375 C8.6348,22.093125 8.9348,22.2178125 9.2816,22.2178125 L13.7672,22.2178125 C13.7672,22.9184375 14.0168,23.51575 14.5184,24.0109375 C15.0188,24.5073125 15.6224,24.7543125 16.3304,24.7543125 C17.0372,24.7543125 17.642,24.5073125 18.1424,24.0109375 C18.6428,23.51575 18.8936,22.9184375 18.8936,22.2178125 L23.378,22.2178125 C23.7248,22.2178125 24.026,22.093125 24.2792,21.841375 C24.5324,21.5908125 24.6596,21.2939375 24.6596,20.9495625 C24.326,20.672875 24.0224,20.3819375 23.7488,20.0779375 L23.7488,20.0779375 Z M12.478,12.707125 C12.478,12.369875 12.5584,12.023125 12.718,11.666875 C12.8788,11.310625 13.1092,10.9698125 13.4092,10.6468125 C13.7092,10.322625 14.1148,10.056625 14.626,9.8488125 C15.136,9.641 15.7012,9.5365 16.3228,9.5365 C16.9432,9.5365 17.5084,9.641 18.0196,9.8488125 C18.5296,10.056625 18.9352,10.322625 19.2364,10.6468125 C19.5364,10.9698125 19.7668,11.310625 19.9264,11.666875 C20.0872,12.023125 20.1664,12.369875 20.1664,12.707125 C20.1664,16.2209375 21.0544,18.9688125 22.8304,20.9495625 L9.8152,20.9495625 C11.59,18.9688125 12.478,16.2209375 12.478,12.707125 L12.478,12.707125 Z" id="notifications_on" fill="#58331E" sketch:type="MSShapeGroup"></path>
    </g>
</svg>