<?xml version="1.0" encoding="utf-8"?>
<!-- Generator: Adobe Illustrator 18.0.0, SVG Export Plug-In . SVG Version: 6.00 Build 0)  -->
<!DOCTYPE svg PUBLIC "-//W3C//DTD SVG 1.1//EN" "http://www.w3.org/Graphics/SVG/1.1/DTD/svg11.dtd">
<svg version="1.1" id="Capa_1" xmlns="http://www.w3.org/2000/svg" xmlns:xlink="http://www.w3.org/1999/xlink" x="0px" y="0px"
	 width="100px" height="100px" viewBox="0 0 100 100" enable-background="new 0 0 100 100" xml:space="preserve">
<path d="M73.1,41.6c0,0.5,0,0.9,0,1.4c0,13.9-10.6,30-30,30c-6,0-11.5-1.7-16.2-4.7c0.8,0.1,1.7,0.1,2.5,0.1c4.9,0,9.5-1.7,13.1-4.5
	c-4.6-0.1-8.5-3.1-9.9-7.3c0.6,0.1,1.3,0.2,2,0.2c1,0,1.9-0.1,2.8-0.4c-4.8-1-8.5-5.2-8.5-10.3v-0.1c1.4,0.8,3,1.3,4.8,1.3
	c-2.8-1.9-4.7-5.1-4.7-8.8c0-1.9,0.5-3.7,1.4-5.3c5.2,6.4,13,10.6,21.7,11c-0.2-0.8-0.3-1.6-0.3-2.4c0-5.8,4.7-10.5,10.5-10.5
	c3,0,5.8,1.3,7.7,3.3c2.4-0.5,4.7-1.3,6.7-2.6c-0.8,2.5-2.5,4.5-4.6,5.8c2.1-0.2,4.2-0.8,6.1-1.7C76.9,38.3,75.1,40.1,73.1,41.6
	 M78.8,7.2H20.2C12.4,7.2,6,13.6,6,21.4v58.6c0,7.8,6.4,14.2,14.2,14.2h58.7c7.8,0,14.2-6.4,14.2-14.2V21.4
	C93.1,13.6,86.7,7.2,78.8,7.2"/>
</svg>
