<svg xmlns="http://www.w3.org/2000/svg" xmlns:xlink="http://www.w3.org/1999/xlink" width="818.6" height="372.8" viewBox="0 0 818.6 372.8"><defs><path id="a" d="M159 152h619v220.8H159z"/></defs><clipPath id="b"><use xlink:href="#a" overflow="visible"/></clipPath><path clip-path="url(#b)" fill="#006C6C" d="M737.5 369.2h3.4c.1-3 .2-6.4.2-10.4v-86.2c0-1.1 0-1.8.1-2.2.1-.4.4-.7 1-.9.6-.2 1.7-.2 3.4-.2 2.4 0 4 .1 4.8.3.8.2 1.2.7 1.2 1.6 0 .6-.1 1.1-.4 1.6-.7 0-1.4.1-1.9.2-.5.2-.9.5-1.2 1.2-.3.6-.5 1.7-.5 3.4-.1 1.6-.1 76.5-.1 81.4 0 4 .1 7.4.2 10.4 0 0 .4 3.3-.7 3.3h-8.3c-.7 0-1.1-.1-1.4-.3-.2-.2-.4-.6-.4-1.2.2-.8.3-1.4.6-2"/><path fill="#006C6C" d="M740.8 239.1H778v133.4h-37.2z"/><defs><path id="c" d="M159 152h619v220.8H159z"/></defs><clipPath id="d"><use xlink:href="#c" overflow="visible"/></clipPath><path clip-path="url(#d)" fill="#004E4D" d="M740.8 239.1c0-3.3 8.3-6.1 18.6-6.1s18.6 2.7 18.6 6.1c0 3.3-8.3 6.1-18.6 6.1s-18.6-2.7-18.6-6.1"/><defs><path id="e" d="M737.3 268.1c-.4 10.2 5.6 18.7 13.3 19 7.7.3 14.3-7.8 14.6-18 .4-10.2-5.6-18.7-13.3-19h-.4c-7.5 0-13.8 7.9-14.2 18"/></defs><clipPath id="f"><use xlink:href="#e" overflow="visible"/></clipPath><path clip-path="url(#f)" fill="#FFF" d="M724.8 268.4c-.2 6.9 5.1 12.7 12 12.9s12.7-5.1 12.9-12c.2-6.9-5.1-12.7-12-12.9-6.9-.3-12.7 5.1-12.9 12"/><path clip-path="url(#f)" fill="#3F2305" d="M732.4 268.7c-.1 2.7 2 4.9 4.7 5 2.7.1 4.9-2 5-4.7.1-2.7-2-4.9-4.7-5-2.6-.1-4.9 2-5 4.7"/><defs><path id="g" d="M159 152h619v220.8H159z"/></defs><clipPath id="h"><use xlink:href="#g" overflow="visible"/></clipPath><path clip-path="url(#h)" fill="#713911" d="M414.9 231.9c-.2 0-.3.2-.5.5-2.2 1.9-11.3 9.2-25.4 9.2h-25.6c-10.4 0-18.8 8.4-18.8 18.8v112.2h39.3c.7 0 1.1-.1 1.4-.3.2-.2.4-.6.4-1.2s-.1-1.2-.4-1.8H382v-90.4h8.9c13.1.6 21.5 7.3 23.6 9.2.2.3.3.5.5.5 1.6 0 2.9-12.7 2.9-28.3-.2-15.8-1.5-28.4-3-28.4"/><path clip-path="url(#h)" fill="#B17F49" d="M414.9 288.4c-1.6 0-2.9-12.7-2.9-28.3 0-15.6 1.3-28.3 2.9-28.3 1.6 0 2.9 12.7 2.9 28.3-.1 15.7-1.4 28.3-2.9 28.3"/><path clip-path="url(#h)" fill="#FFF" d="M377.2 298.4c0 6.9-5.6 1-12.5 1s-12.5 5.9-12.5-1 5.6-12.5 12.5-12.5 12.5 5.6 12.5 12.5"/><defs><path id="i" d="M352.2 298.4c0 6.9 5.6 1 12.5 1s12.5 5.9 12.5-1-5.6-12.5-12.5-12.5-12.5 5.6-12.5 12.5"/></defs><clipPath id="j"><use xlink:href="#i" overflow="visible"/></clipPath><path clip-path="url(#j)" fill="#3F2305" d="M369.6 296.9c0 2.7-2.2 4.9-4.9 4.9s-4.9-2.2-4.9-4.9 2.2-4.9 4.9-4.9c2.7.1 4.9 2.2 4.9 4.9"/><defs><path id="k" d="M412 260.2c0 15.6 1.3 28.3 2.9 28.3 1.5 0 28.6-11.5 31.1-26.1V258c-2.6-14.6-29.6-26.1-31.1-26.1-1.6 0-2.9 12.6-2.9 28.3"/></defs><clipPath id="l"><use xlink:href="#k" overflow="visible"/></clipPath><path clip-path="url(#l)" fill="#09988C" d="M435.4 260.2c0 8.4-6.8 15.3-15.3 15.3-8.4 0-15.3-6.8-15.3-15.3 0-8.4 6.8-15.3 15.3-15.3s15.3 6.8 15.3 15.3"/><defs><path id="m" d="M159 152h619v220.8H159z"/></defs><clipPath id="n"><use xlink:href="#m" overflow="visible"/></clipPath><path clip-path="url(#n)" fill="#713911" d="M193.8 301h-.4l-32.2-5.6c-1.4-.2-2.3-1.6-2.1-3 .2-1.4 1.6-2.3 3-2.1l32.2 5.6c1.4.2 2.3 1.6 2.1 3-.3 1.2-1.4 2.1-2.6 2.1M193.8 312.2h-.4l-32.2-5.6c-1.4-.2-2.3-1.6-2.1-3 .2-1.4 1.6-2.3 3-2.1l32.2 5.6c1.4.2 2.3 1.6 2.1 3-.3 1.3-1.4 2.1-2.6 2.1"/><path clip-path="url(#n)" fill="#B17F49" d="M161.6 306.6c-1.2 0-2.3-.9-2.5-2.1-.2-1.4.7-2.7 2.1-3l32.2-5.6c1.4-.2 2.7.7 3 2.1.2 1.4-.7 2.7-2.1 3l-32.2 5.6h-.5"/><path clip-path="url(#n)" fill="#713911" d="M193.8 323.5h-.4l-32.2-5.6c-1.4-.2-2.3-1.6-2.1-3 .2-1.4 1.6-2.3 3-2.1l32.2 5.6c1.4.2 2.3 1.6 2.1 3-.3 1.3-1.4 2.1-2.6 2.1"/><path clip-path="url(#n)" fill="#99CEB0" d="M192.9 282.3c0 8.4-6.8 15.3-15.3 15.3-8.4 0-15.3-6.8-15.3-15.3 0-8.4 6.8-15.3 15.3-15.3 8.4 0 15.3 6.8 15.3 15.3"/><path clip-path="url(#n)" fill="#006C6C" d="M272.6 200.3c0 8.4-6.8 15.3-15.3 15.3-8.4 0-15.3-6.8-15.3-15.3 0-8.4 6.8-15.3 15.3-15.3s15.3 6.9 15.3 15.3"/><path clip-path="url(#n)" fill="#B17F49" d="M161.6 295.3c-1.2 0-2.3-.9-2.5-2.1-.2-1.4.7-2.7 2.1-3l32.2-5.6c1.4-.2 2.7.7 3 2.1.2 1.4-.7 2.7-2.1 3l-32.2 5.6h-.5"/><path clip-path="url(#n)" fill="#B17F49" d="M193.8 289.4h-32.4c-1.3 0-2.4-1.1-2.4-2.4 0-1.3 1.1-2.4 2.4-2.4h32.4c1.3 0 2.4 1.1 2.4 2.4.1 1.3-1 2.4-2.4 2.4M199.6 369.2h-3.4c-.1-3-.2-6.4-.2-10.4v-14.5c0-1.1 0-1.8-.1-2.2-.1-.4-.4-.7-1-.9-.6-.2-1.7-.2-3.4-.2-2.4 0-4 .1-4.8.3-.8.2-1.2.7-1.2 1.6 0 .6.1 1.1.4 1.6.7 0 1.4.1 1.9.2.5.2.9.5 1.2 1.2.3.6.5 1.7.5 3.4.1 1.6.1 4.9.1 9.7 0 4-.1 7.4-.2 10.4 0 0-.4 3.3.7 3.3h8.3c.7 0 1.1-.1 1.4-.3.2-.2.4-.6.4-1.2-.2-.8-.3-1.4-.6-2"/><path fill="#B17F49" d="M159.1 327h37.2v45.5h-37.2z"/><g><defs><path id="o" d="M159 152h619v220.8H159z"/></defs><clipPath id="p"><use xlink:href="#o" overflow="visible"/></clipPath><path clip-path="url(#p)" fill="#B17F49" d="M196.3 327c0-3.3-8.3-6.1-18.6-6.1s-18.6 2.7-18.6 6.1c0 3.3 8.3 6.1 18.6 6.1s18.6-2.7 18.6-6.1"/><path clip-path="url(#p)" fill="#FFF" d="M190.2 339.8c0 6.9-5.6 12.5-12.5 12.5s-12.5-5.6-12.5-12.5 5.6-12.5 12.5-12.5 12.5 5.6 12.5 12.5"/><path clip-path="url(#p)" fill="#3F2305" d="M182.6 339.8c0 2.7-2.2 4.9-4.9 4.9s-4.9-2.2-4.9-4.9 2.2-4.9 4.9-4.9 4.9 2.2 4.9 4.9"/><path clip-path="url(#p)" fill="#B17F49" d="M161.6 317.9c-1.2 0-2.3-.9-2.5-2.1-.2-1.4.7-2.7 2.1-3l32.2-5.6c1.4-.2 2.7.7 3 2.1.2 1.4-.7 2.7-2.1 3l-32.2 5.6h-.5M161.6 329.2c-1.2 0-2.3-.9-2.5-2.1-.2-1.4.7-2.7 2.1-3l32.2-5.6c1.4-.2 2.7.7 3 2.1.2 1.4-.7 2.7-2.1 3l-32.2 5.6c-.2-.1-.3 0-.5 0"/><path clip-path="url(#p)" fill="#99CEB0" d="M315.3 336.8c-10.1 0-18.3-8.2-18.3-18.3 0-10.1 8.2-18.3 18.3-18.3 10.1 0 18.3 8.2 18.3 18.3 0 10.1-8.2 18.3-18.3 18.3m0-47c-15.9 0-28.7 12.9-28.7 28.7 0 15.9 12.9 28.7 28.7 28.7s28.7-12.9 28.7-28.7c0-15.8-12.9-28.7-28.7-28.7"/><path clip-path="url(#p)" fill="#99CEB0" d="M315.3 336.8c-10.1 0-18.3-8.2-18.3-18.3 0-10.1 8.2-18.3 18.3-18.3 10.1 0 18.3 8.2 18.3 18.3 0 10.1-8.2 18.3-18.3 18.3m0-72.1c-10.3 0-18.6 2.7-18.6 6.1v101.7h37.2V270.8c0-3.4-8.4-6.1-18.6-6.1"/><path clip-path="url(#p)" fill="#99CEB0" d="M337.1 369.2h-3.4c-.1-3-.2-6.4-.2-10.4v-14.5c0-1.1 0-1.8-.1-2.2-.1-.4-.4-.7-1-.9-.6-.2-1.7-.2-3.4-.2-2.4 0-4 .1-4.8.3-.8.2-1.2.7-1.2 1.6 0 .6.1 1.1.4 1.6.7 0 1.4.1 1.9.2.5.2.9.5 1.2 1.2.3.6.5 1.7.5 3.4.1 1.6.1 4.9.1 9.7 0 4-.1 7.4-.2 10.4 0 0-.4 3.3.7 3.3h8.3c.7 0 1.1-.1 1.4-.3.2-.2.4-.6.4-1.2-.1-.8-.3-1.4-.6-2"/><path clip-path="url(#p)" fill="#FFF" d="M328.4 286.4c0 6.9-5.6 1-12.5 1s-12.5 5.9-12.5-1 5.6-12.5 12.5-12.5 12.5 5.6 12.5 12.5"/></g><g><defs><path id="q" d="M303.4 286.4c0 6.9 5.6 1 12.5 1s12.5 5.9 12.5-1-5.6-12.5-12.5-12.5-12.5 5.6-12.5 12.5"/></defs><clipPath id="r"><use xlink:href="#q" overflow="visible"/></clipPath><path clip-path="url(#r)" fill="#3F2305" d="M320.8 284.9c0 2.7-2.2 4.9-4.9 4.9s-4.9-2.2-4.9-4.9 2.2-4.9 4.9-4.9c2.7.1 4.9 2.2 4.9 4.9"/></g><g><defs><path id="s" d="M298.9 244.7c0 8.6 6.9 15.5 15.5 15.5s15.5-6.9 15.5-15.5c0-8.5-6.9-15.5-15.5-15.5s-15.5 6.9-15.5 15.5m196 0c0 8.6 6.9 15.5 15.5 15.5s15.5-6.9 15.5-15.5c0-8.5-6.9-15.5-15.5-15.5-8.5 0-15.5 6.9-15.5 15.5m-162.8-65.9c-6 6-6 15.8 0 21.9 6 6 15.8 6 21.9 0 6-6 6-15.8 0-21.9-3-3-7-4.5-10.9-4.5-4-.1-7.9 1.4-11 4.5m138.7 0c-6 6-6 15.8 0 21.9 6 6 15.8 6 21.9 0 6-6 6-15.8 0-21.9-3-3-7-4.5-10.9-4.5-4-.1-8 1.4-11 4.5m-73.9-11.3c0 8.5 6.9 15.5 15.5 15.5s15.5-6.9 15.5-15.5S421 152 412.4 152s-15.5 7-15.5 15.5"/></defs><clipPath id="t"><use xlink:href="#s" overflow="visible"/></clipPath><linearGradient id="u" gradientUnits="userSpaceOnUse" x1="-11.293" y1="483.787" x2="-10.486" y2="483.787" gradientTransform="scale(281.2296) rotate(180 -4.71 -241.527)"><stop offset="0" stop-color="#c99d66"/><stop offset=".452" stop-color="#09988c"/><stop offset=".995" stop-color="#006d6c"/><stop offset="1" stop-color="#006d6c"/></linearGradient><path clip-path="url(#t)" fill="url(#u)" d="M298.9 152h227v108.1h-227z"/></g><g><defs><path id="v" d="M159 152h619v220.8H159z"/></defs><clipPath id="w"><use xlink:href="#v" overflow="visible"/></clipPath><path clip-path="url(#w)" fill="#09988C" d="M493.8 276.2c2-3.8 3.3-5.6 6.6-8.9 4.6.8 6.7 1.6 10.3 3.5-3.4 2.3-4.8 3.8-7.1 6.7-3.6-1.1-5.6-1.5-9.8-1.3m11.9 2.1c2.3-2.8 3.8-4.1 7.2-6.2 3.4 2.1 4.9 3.4 7.2 6.2-3.3 1.4-4.8 2.3-7.2 4.5-2.4-2.2-3.9-3.2-7.2-4.5m16.4-.8c-2.3-3-3.7-4.4-7.1-6.7 3.7-1.9 5.8-2.7 10.3-3.5 3.3 3.3 4.6 5.1 6.6 8.9-4.2-.2-6.2.1-9.8 1.3m4-12.7c-3.5-3.4-5.6-4.9-10.3-7.3 5-1.9 7.7-2.5 13.6-2.9 4.5 3.7 6.5 5.8 9.6 10.2-5.5-.8-8.1-.8-12.9 0m4.1-12.7c-4.8-3.7-7.5-5.4-13.5-7.9 6.3-1.8 9.7-2.3 16.7-2.3 5.8 4.1 8.3 6.5 12.6 11.6-6.5-1.5-9.8-1.8-15.8-1.4m-3.7.3c-5.9.7-8.7 1.5-13.6 3.7-5-2.1-7.8-2.9-13.6-3.7 4.8-3.4 7.6-4.9 13.6-7 6 2.1 8.8 3.6 13.6 7m-17.3-8.2c-6 2.5-8.8 4.1-13.5 7.9-6.1-.3-9.3-.1-15.8 1.4 4.3-5.2 6.8-7.6 12.6-11.6 7 0 10.4.5 16.7 2.3m3.6 14.5c4.7 2.1 6.8 3.5 10.4 6.6-4.6 1.1-6.7 1.9-10.4 4.1-3.7-2.1-5.8-3-10.4-4.1 3.6-3.1 5.7-4.5 10.4-6.6m-16.5-4.1c5.8.4 8.6 1.1 13.5 2.9-4.7 2.4-6.8 4-10.3 7.3-4.8-.7-7.4-.8-12.8 0 3.2-4.4 5.1-6.5 9.6-10.2m-6.8 22c2.6 5 4.5 10.1 4.9 14.7v81.5h38.3v-79.9c0-5 2-10.7 4.9-16.2-.9-.2-1.9-.3-3-.4-1.9-4-3.2-5.9-6.4-9.4 4.7-.5 7.3-.4 12.6.7.4.7.7 1.3 1.1 1.8.8-1.2 1.5-2.4 2.3-3.5-.6-.1-1.2-.3-1.8-.4-3-4.8-4.9-7-9.3-11 6 0 9.1.4 15.5 2.3.4.6.8 1.2 1.2 1.7l.1-.1c1.5-.8 2.7-1.7 3.6-2.6-1-.4-2.1-.7-3.3-1.1-4.1-5.6-6.6-8.1-12.2-12.6 2.5.2 4.6.4 6.5.6-4.1-1.4-9.1-2.5-14.7-3.3.1 0 .1.1.2.1-7.2.4-10.6 1.1-16.9 3.3-6.1-2.1-9.5-2.8-16.3-3.3-4.8.7-9.2 1.7-12.8 2.8 1.3-.1 2.7-.3 4.3-.4-5.7 4.5-8.2 7-12.2 12.6-.8.3-1.6.5-2.4.8.8.9 1.8 1.7 3.1 2.4.2-.3.5-.7.7-1 6.3-1.9 9.5-2.3 15.5-2.3-4.4 4-6.3 6.3-9.3 11-.2.1-.4.1-.6.2.6.8 1.2 1.7 1.7 2.6l.3-.6c5.2-1.1 7.8-1.2 12.5-.7-3.2 3.5-4.5 5.5-6.4 9.5-.6 0-1.2.1-1.7.2"/><path clip-path="url(#w)" fill="#09988C" d="M491 369.4h3.5c.2-3 .2-6.6.2-10.7v-15c0-1.1 0-1.9.1-2.3.1-.4.4-23.2 1-23.4.6-.2 1.8-.2 3.5-.2 2.5 0 4.1.1 5 .3.9.2 1.3.7 1.3 1.6 0 .6-.1 23.6-.4 24.1-.8 0-1.4.1-1.9.2-.5.2-.9.6-1.2 1.2-.3.6-.5 1.8-.5 3.5-.1 1.7-.1 5-.1 10 0 4.1.1 7.7.2 10.7 0 0 .5 3.4-.7 3.4h-8.6c-.7 0-1.2-.1-1.4-.3-.2-.2-.4-.6-.4-1.2 0-.7.1-1.3.4-1.9"/><path clip-path="url(#w)" fill="#FFF" d="M500 309.6c0 7.1 5.8 12.9 12.9 12.9 7.1 0 12.8-5.8 12.8-12.9 0-7.1-5.8-12.9-12.8-12.9-7.1 0-12.9 5.8-12.9 12.9"/><path clip-path="url(#w)" fill="#3F2305" d="M507.9 309.6c0 2.8 2.2 5 5 5s5-2.2 5-5-2.2-5-5-5-5 2.2-5 5"/><path clip-path="url(#w)" fill="#09988C" d="M513.6 238.4c-23.1 0-41.8 5.9-41.8 13.3 0 2.4 2 4.7 5.6 6.6 6.4 8.1 16.1 22 17 33v81.5h38.3v-79.9c0-11.3 10.4-26.2 17.1-34.6 3.6-2 5.6-4.2 5.6-6.6-.1-7.4-18.8-13.3-41.8-13.3m0 2.5c23.9 0 39.2 6.4 39.2 10.7 0 1.3-1.6 2.9-4.3 4.4-.3.2-.6.4-.8.6-8 10.1-17.6 24.6-17.6 36.2v77.3h-33.2v-78.9-.2c-.9-11.3-10-25-17.5-34.4-.2-.3-.5-.5-.8-.6-2.7-1.5-4.2-3.1-4.2-4.4 0-4.3 15.2-10.7 39.2-10.7"/><path clip-path="url(#w)" fill="#006C6C" d="M522.6 269.1c0 1.4 11.4 2.6 25.5 2.6s25.5-1.2 25.5-2.6c0-1.4-11.4-2.6-25.5-2.6-14 0-25.5 1.1-25.5 2.6"/><path clip-path="url(#w)" fill="#006C6C" d="M573.7 269.1s-8.7 8.8-8.7 23.5-23.7 1.4-23.7 1.4l2.5-24.9h29.9z"/><path clip-path="url(#w)" fill="#006C6C" d="M522.6 269.1s8.7 8.8 8.7 23.5S555 294 555 294l-2.5-24.9h-29.9z"/><path clip-path="url(#w)" fill="#09988C" d="M521.5 277.2c0 1.5 11.9 2.7 26.7 2.7 14.7 0 26.7-1.2 26.7-2.7 0-1.5-11.9-2.7-26.7-2.7-14.8 0-26.7 1.2-26.7 2.7"/><path clip-path="url(#w)" fill="#09988C" d="M574.8 277.2s-9.1 9.2-9.1 24.5c0 15.4-24.8 1.5-24.8 1.5l2.7-26h31.2z"/><path clip-path="url(#w)" fill="#09988C" d="M521.5 277.2s9.1 9.2 9.1 24.5c0 15.4 24.8 1.5 24.8 1.5l-2.7-26h-31.2z"/><path clip-path="url(#w)" fill="#99CEB0" d="M518.4 286.6c0 1.7 13.3 3 29.7 3s29.7-1.4 29.7-3c0-1.7-13.3-3-29.7-3-16.4-.1-29.7 1.3-29.7 3"/><path clip-path="url(#w)" fill="#99CEB0" d="M577.9 286.6s-10.2 10.2-10.2 27.4-27.6 1.7-27.6 1.7l3-29h34.8z"/><path clip-path="url(#w)" fill="#99CEB0" d="M518.4 286.6s10.2 10.2 10.2 27.4 27.6 1.7 27.6 1.7l-3-29h-34.8zM525.1 369.3h3.5c.2-3.1.2-6.8.2-11V343c0-1.1 0-1.9.1-2.4s.4-.8 1.1-.9c.6-.2 1.8-.3 3.6-.3 2.5 0 4.2.1 5.1.3.9.2 1.3.8 1.3 1.7 0 .6-.1 1.2-.4 1.7-.8 0-1.4.1-2 .2-.5.2-.9.6-1.2 1.2-.3.6-.5 1.8-.6 3.6-.1 1.7-.1 5.1-.1 10.3 0 4.2.1 7.9.2 11 0 0 .5 3.5-.8 3.5h-8.8c-.7 0-1.2-.1-1.4-.3-.2-.2-.4-.6-.4-1.2.2-.9.3-1.5.6-2.1"/></g><path fill="#99CEB0" d="M528.5 307.5h39.1v65.3h-39.1z"/><g><defs><path id="x" d="M159 152h619v220.8H159z"/></defs><clipPath id="y"><use xlink:href="#x" overflow="visible"/></clipPath><path clip-path="url(#y)" fill="#FFF" d="M534.3 321c0 7.3 5.9 13.2 13.1 13.2 7.2 0 13.1-5.9 13.1-13.2 0-7.3-5.9-13.2-13.1-13.2-7.2 0-13.1 5.9-13.1 13.2"/><path clip-path="url(#y)" fill="#3F2305" d="M542.5 320.8c0 2.8 2.3 5.2 5.1 5.2s5.1-2.3 5.1-5.2c0-2.8-2.3-5.2-5.1-5.2s-5.1 2.3-5.1 5.2"/><path clip-path="url(#y)" fill="#B17F49" d="M690.2 334.5c-10.8 0-19.5-8.7-19.5-19.5s8.7-19.5 19.5-19.5 19.5 8.7 19.5 19.5c0 10.7-8.7 19.5-19.5 19.5m0-50.3c-16.9 0-30.7 13.7-30.7 30.7 0 16.9 13.7 30.7 30.7 30.7 16.9 0 30.7-13.7 30.7-30.7 0-16.9-13.7-30.7-30.7-30.7"/><path clip-path="url(#y)" fill="#B17F49" d="M690.2 334.5c-10.8 0-19.5-8.7-19.5-19.5s8.7-19.5 19.5-19.5 19.5 8.7 19.5 19.5c0 10.7-8.7 19.5-19.5 19.5m0-77c-11 0-19.9 2.9-19.9 6.5v108.6H710V264c.1-3.6-8.8-6.5-19.8-6.5"/><path clip-path="url(#y)" fill="#B17F49" d="M713.6 369H710c-.2-3.2-.2-6.8-.2-11.1v-15.5c0-1.1 0-1.9-.1-2.4s-.5-.8-1.1-1c-.6-.2-1.8-.3-3.6-.3-2.5 0-4.3.1-5.1.3-.9.2-1.3.8-1.3 1.7 0 .6.1 1.2.4 1.7.8 0 1.5.1 2 .2.5.2.9.6 1.2 1.2.3.7.5 1.9.6 3.6.1 1.7.1 5.2.1 10.4 0 4.2-.1 7.9-.2 11.1 0 0-.5 3.5.8 3.5h8.9c.7 0 1.2-.1 1.5-.3.2-.2.4-.6.4-1.3-.3-.6-.4-1.2-.7-1.8"/><path clip-path="url(#y)" fill="#FFF" d="M704.2 280.7c0 7.4-6 1.1-13.3 1.1-7.4 0-13.3 6.2-13.3-1.1s6-13.3 13.3-13.3c7.3-.1 13.3 5.9 13.3 13.3"/></g><g><defs><path id="z" d="M677.6 280.7c0 7.4 6 1.1 13.3 1.1 7.4 0 13.3 6.2 13.3-1.1s-6-13.3-13.3-13.3c-7.4-.1-13.3 5.9-13.3 13.3"/></defs><clipPath id="A"><use xlink:href="#z" overflow="visible"/></clipPath><path clip-path="url(#A)" fill="#3F2305" d="M696.1 279.1c0 2.9-2.3 5.2-5.2 5.2-2.9 0-5.2-2.3-5.2-5.2 0-2.9 2.3-5.2 5.2-5.2 2.9 0 5.2 2.3 5.2 5.2"/></g><g><defs><path id="B" d="M159 152h619v220.8H159z"/></defs><clipPath id="C"><use xlink:href="#B" overflow="visible"/></clipPath><path clip-path="url(#C)" fill="#09988C" d="M704.8 314.9c0 8-6.5 14.6-14.6 14.6-8 0-14.6-6.5-14.6-14.6 0-8 6.5-14.6 14.6-14.6 8.1.1 14.6 6.6 14.6 14.6"/><path clip-path="url(#C)" fill="#C99D66" d="M257.3 224.9c-16.6 0-30 1.4-30 3v.2c.3.2 3 3.4 6 7.1 0 0 3.4 4.2 4.1 15.7.1 2.8-.3 5.7-1.6 7.6-.9 1.3-2.1 3-3.4 4.7 0 0-4.6 6.2-4.6 14.9s4.6 14.8 4.6 14.8c2.9 3.9 5.2 10.9 5.2 15.7v63.9h39.5v-63.9c0-4.8 2.3-11.9 5.2-15.8 0 0 4.5-6.1 4.5-14.8 0-8.7-4.6-14.9-4.6-14.9-1.4-1.8-2.6-3.6-3.5-4.9-1.1-1.7-1.5-4.3-1.5-6.8.6-12 4.1-16.3 4.1-16.3 3-3.7 5.7-6.9 6-7.1v-.2c0-1.6-13.4-2.9-30-2.9"/></g><g><defs><path id="D" d="M227.3 227.9v.2c.3.2 3 3.4 6 7.1 0 0 3.4 4.2 4.1 15.7.1 2.8-.3 5.7-1.6 7.6-.9 1.3-2.1 3-3.4 4.7 0 0-4.6 6.2-4.6 14.9s4.6 14.8 4.6 14.8c2.9 3.9 5.2 10.9 5.2 15.7v63.9h39.5v-63.9c0-4.8 2.3-11.9 5.2-15.8 0 0 4.5-6.1 4.5-14.8 0-8.7-4.6-14.9-4.6-14.9-1.4-1.8-2.6-3.6-3.5-4.9-1.1-1.7-1.5-4.3-1.5-6.8.6-12 4.1-16.3 4.1-16.3 3-3.7 5.7-6.9 6-7.1v-.2c0-1.7-13.4-3-30-3-16.5.1-30 1.4-30 3.1"/></defs><clipPath id="E"><use xlink:href="#D" overflow="visible"/></clipPath><path clip-path="url(#E)" fill="#B17F49" d="M272.6 241c0 8.4-6.8 15.3-15.3 15.3-8.4 0-15.3-6.8-15.3-15.3 0-8.4 6.8-15.3 15.3-15.3s15.3 6.9 15.3 15.3"/></g><g><defs><path id="F" d="M159 152h619v220.8H159z"/></defs><clipPath id="G"><use xlink:href="#F" overflow="visible"/></clipPath><path clip-path="url(#G)" fill="#C99D66" d="M280.6 369.1H277c-.2-3.1-.2-6.8-.2-11v-15.4c0-1.1 0-1.9-.1-2.4s-.5-.8-1.1-.9c-.6-.2-1.8-.3-3.6-.3-2.5 0-4.2.1-5.1.3-.9.2-1.3.8-1.3 1.7 0 .6.1 1.2.4 1.7.8 0 1.4.1 2 .2.5.2.9.6 1.2 1.2.3.7.5 1.8.6 3.6.1 1.7.1 5.2.1 10.3 0 4.2-.1 7.9-.2 11 0 0-.5 3.5.8 3.5h8.8c.7 0 1.2-.1 1.5-.3.2-.2.4-.6.4-1.3-.2-.7-.3-1.4-.6-1.9"/></g><g><defs><path id="H" d="M265.1 304.4c-8.2.3-14.5 9.3-14.1 20.1.4 10.8 7.3 19.4 15.5 19.1 8.2-.3 14.5-9.3 14.1-20.1-.4-10.6-7.1-19.1-15.1-19.1h-.4"/></defs><clipPath id="I"><use xlink:href="#H" overflow="visible"/></clipPath><path clip-path="url(#I)" fill="#FFF" d="M293.9 323.8c.3 7.3-5.5 13.4-12.8 13.7-7.3.3-13.4-5.5-13.7-12.8-.3-7.3 5.4-13.4 12.8-13.7 7.3-.2 13.4 5.5 13.7 12.8"/><path clip-path="url(#I)" fill="#3F2305" d="M285.8 324.1c.1 2.8-2.1 5.2-5 5.3-2.8.1-5.2-2.1-5.3-5-.1-2.8 2.1-5.2 5-5.3 2.8-.1 5.2 2.1 5.3 5"/></g><g><defs><path id="J" d="M159 152h619v220.8H159z"/></defs><clipPath id="K"><use xlink:href="#J" overflow="visible"/></clipPath><path clip-path="url(#K)" fill="#B17F49" d="M272.6 279c0 8.4-6.8 15.3-15.3 15.3-8.4 0-15.3-6.8-15.3-15.3 0-8.4 6.8-15.3 15.3-15.3s15.3 6.8 15.3 15.3M257.3 233.9c16.6 0 30-4.1 30-6.4 0-2.3-13.4-5-30-5s-30 2.8-30 5c0 2.3 13.5 6.4 30 6.4"/></g><g><defs><path id="L" d="M227.3 227.5c0 2.3 13.4 6.4 30 6.4s30-4.1 30-6.4c0-2.3-13.4-5-30-5-16.5 0-30 2.8-30 5"/></defs><clipPath id="M"><use xlink:href="#L" overflow="visible"/></clipPath><path clip-path="url(#M)" fill="#09988C" d="M272.6 241c0 8.4-6.8 15.3-15.3 15.3-8.4 0-15.3-6.8-15.3-15.3 0-8.4 6.8-15.3 15.3-15.3s15.3 6.9 15.3 15.3"/></g><g><defs><path id="N" d="M159 152h619v220.8H159z"/></defs><clipPath id="O"><use xlink:href="#N" overflow="visible"/></clipPath><path clip-path="url(#O)" fill="#713911" d="M627.4 369.2h-3.7c-.2-3.3-.2-7.1-.2-11.5v-16c0-1.2 0-2-.1-2.5s-.5-.8-1.1-1c-.7-.2-1.9-.3-3.8-.3-2.6 0-4.4.1-5.3.3-.9.2-1.4.8-1.4 1.8 0 .7.2 1.2.5 1.7.8 0 1.5.1 2.1.2.5.2 1 .6 1.3 1.3.3.7.5 1.9.6 3.7.1 1.8.1 5.4.1 10.7 0 4.4-.1 8.2-.2 11.5 0 0-.5 3.6.8 3.6h9.2c.7 0 1.3-.1 1.5-.4.3-.2.4-.7.4-1.3-.2-.6-.4-1.2-.7-1.8"/></g><path fill="#713911" d="M582.7 304.7h41.1v68.1h-41.1z"/><g><defs><path id="P" d="M159 152h619v220.8H159z"/></defs><clipPath id="Q"><use xlink:href="#P" overflow="visible"/></clipPath><path clip-path="url(#Q)" fill="#3F2305" d="M623.8 304.7c0-3.7-9.2-6.7-20.6-6.7s-20.6 3-20.6 6.7 9.2 6.7 20.6 6.7 20.6-3 20.6-6.7"/></g><g><defs><path id="R" d="M582.7 304.7c0 3.7 9.2 6.7 20.6 6.7 11.4 0 20.6-3 20.6-6.7s-9.2-6.7-20.6-6.7c-11.4 0-20.6 3-20.6 6.7"/></defs><clipPath id="S"><use xlink:href="#R" overflow="visible"/></clipPath><path clip-path="url(#S)" fill="#09988C" d="M618.4 316.4c0 8.4-6.8 15.3-15.3 15.3-8.4 0-15.3-6.8-15.3-15.3 0-8.4 6.8-15.3 15.3-15.3 8.4 0 15.3 6.9 15.3 15.3"/></g><g><defs><path id="T" d="M159 152h619v220.8H159z"/></defs><clipPath id="U"><use xlink:href="#T" overflow="visible"/></clipPath><path clip-path="url(#U)" fill="#FFF" d="M617.7 334.2c0 7.6-6.2 1.2-13.8 1.2-7.6 0-13.8 6.5-13.8-1.2 0-7.6 6.2-13.8 13.8-13.8 7.6.1 13.8 6.2 13.8 13.8"/></g><g><defs><path id="V" d="M590.1 334.2c0 7.6 6.2 1.2 13.8 1.2 7.6 0 13.8 6.5 13.8-1.2 0-7.6-6.2-13.8-13.8-13.8-7.6.1-13.8 6.2-13.8 13.8"/></defs><clipPath id="W"><use xlink:href="#V" overflow="visible"/></clipPath><path clip-path="url(#W)" fill="#3F2305" d="M609.3 332.6c0 3-2.4 5.4-5.4 5.4-3 0-5.4-2.4-5.4-5.4 0-3 2.4-5.4 5.4-5.4 3 0 5.4 2.4 5.4 5.4"/></g><g><defs><path id="X" d="M159 152h619v220.8H159z"/></defs><clipPath id="Y"><use xlink:href="#X" overflow="visible"/></clipPath><path clip-path="url(#Y)" fill="#006C6C" d="M207.7 369.2h3.4c.1-3 .2-6.4.2-10.4v-22.4c0-1.1 0-1.8.1-2.2.1-.4.4-.7 1-.9.6-.2 1.7-.2 3.4-.2 2.4 0 4 .1 4.8.3.8.2 1.2.7 1.2 1.6 0 .6-.1 1.1-.4 1.6-.7 0-1.4.1-1.9.2-.5.2-.9.5-1.2 1.2-.3.6-.5 1.7-.5 3.4-.1 1.6-.1 12.8-.1 17.6 0 4 .1 7.4.2 10.4 0 0 .4 3.3-.7 3.3H209c-.7 0-1.1-.1-1.4-.3-.2-.2-.4-.6-.4-1.2 0-.8.2-1.4.5-2"/></g><path fill="#006C6C" d="M210.9 302.9h37.2v69.7h-37.2z"/><g><defs><path id="Z" d="M159 152h619v220.8H159z"/></defs><clipPath id="aa"><use xlink:href="#Z" overflow="visible"/></clipPath><path clip-path="url(#aa)" fill="#006C6C" d="M210.9 302.9c0-3.3 8.3-6.1 18.6-6.1s18.6 2.7 18.6 6.1c0 3.3-8.3 6.1-18.6 6.1-10.2-.1-18.6-2.8-18.6-6.1"/><path clip-path="url(#aa)" fill="#FFF" d="M217.1 320.5c0 6.9 5.6 1 12.5 1s12.5 5.9 12.5-1-5.6-12.5-12.5-12.5-12.5 5.6-12.5 12.5"/></g><g><defs><path id="ab" d="M217.1 320.5c0 6.9 5.6 1 12.5 1s12.5 5.9 12.5-1-5.6-12.5-12.5-12.5-12.5 5.6-12.5 12.5"/></defs><clipPath id="ac"><use xlink:href="#ab" overflow="visible"/></clipPath><path clip-path="url(#ac)" fill="#3F2305" d="M224.7 319c0 2.7 2.2 4.9 4.9 4.9s4.9-2.2 4.9-4.9-2.2-4.9-4.9-4.9c-2.7.1-4.9 2.2-4.9 4.9"/></g><g><defs><path id="ad" d="M159 152h619v220.8H159z"/></defs><clipPath id="ae"><use xlink:href="#ad" overflow="visible"/></clipPath><path clip-path="url(#ae)" fill="#006C6C" d="M245.9 305.1s15.7-3 14.9-17.4c0 0-.6-3.6-4.4-3.9-3.9-.3-1.1 4.3-1.9 6.8-.8 2.6-4.4 7.5-10.8 8.6-6.4 1.2 2.2 5.9 2.2 5.9M211.8 305.1s-15.7-3-14.9-17.4c0 0 .6-3.6 4.4-3.9 3.9-.3 1.1 4.3 1.9 6.8.8 2.6 4.4 7.5 10.8 8.6 6.3 1.2-2.2 5.9-2.2 5.9"/><path clip-path="url(#ae)" fill="#09988C" d="M773.1 202.6c0 8.4-6.8 15.3-15.3 15.3-8.4 0-15.3-6.8-15.3-15.3 0-8.4 6.8-15.3 15.3-15.3 8.4 0 15.3 6.9 15.3 15.3"/></g></svg>