<svg xmlns="http://www.w3.org/2000/svg" viewBox="0.2 149.8 1190.3 541.1"><linearGradient id="a" gradientUnits="userSpaceOnUse" x1="1278.793" y1="-236.478" x2="1279.595" y2="-236.478" gradientTransform="rotate(-90 512027.93 351815.945) scale(674.9747)"><stop offset="0" stop-color="#3f2305"/><stop offset="1" stop-color="#713911"/></linearGradient><path fill="url(#a)" d="M0 149.8h1190.6v541H0z"/><linearGradient id="b" gradientUnits="userSpaceOnUse" x1="595.3" y1="150.38" x2="595.3" y2="369.069" gradientTransform="matrix(1 0 0 -1 0 841.28)"><stop offset="0" stop-color="#b07e4a"/><stop offset=".009" stop-color="#b27f4a"/><stop offset=".476" stop-color="#bf905a"/><stop offset=".993" stop-color="#ca9e66"/><stop offset="1" stop-color="#ca9e66"/></linearGradient><path opacity=".3" fill="url(#b)" d="M0 490s147.2 38.7 406.4 9.5 326.9-37.1 466-13.2c138.9 23.9 210.1-19.7 318.2 3.7v200.9H0V490z"/><path opacity=".3" fill="#006D6C" d="M1190.6 589c-17.6.7-33.2 4.7-49.7 11.5-35.3 14.6-134.1 90.3-134.1 90.3h183.9V589h-.1z"/><path opacity=".1" fill="#9ACFB0" d="M0 570.8s129-86.1 243.2-26.1c114.2 60.1 212.4 117.7 313.9 60.1 101.6-57.6 141.3-50.2 197.4-22.5 56.1 27.7 159.8 53.2 246.8 0 87.1-53.2 189.3-11.5 189.3-11.5s-99.8 83.7-226-5.1-140.2 38.8-224.3 67.6c-84.1 28.9-177.5 2.7-237-70.2s-176.4 60.1-237 70.2C79.5 664.8 0 570.8 0 570.8"/><path opacity=".3" fill="#006D6C" d="M0 690.9h788.1S531 619.3 477.4 633.3s-202.8 43.2-318.6-2.3C80.8 600.3 36.2 587.6 0 589v101.9z"/><path opacity=".3" fill="#006C6C" d="M326.7 690.9s200-91.2 368-61.2 191.9 38.9 273.6 23.5c69.4-13.1 196.1 37.7 196.1 37.7H326.7z"/></svg>