<?xml version="1.0" encoding="utf-8"?>
<!-- Generator: Adobe Illustrator 18.0.0, SVG Export Plug-In . SVG Version: 6.00 Build 0)  -->
<!DOCTYPE svg PUBLIC "-//W3C//DTD SVG 1.1//EN" "http://www.w3.org/Graphics/SVG/1.1/DTD/svg11.dtd">
<svg version="1.1" id="Capa_2" xmlns="http://www.w3.org/2000/svg" xmlns:xlink="http://www.w3.org/1999/xlink" x="0px" y="0px"
	 width="818.6px" height="372.8px" viewBox="0 0 818.6 372.8" enable-background="new 0 0 818.6 372.8" xml:space="preserve">
<g>
	<defs>
		<rect id="SVGID_1_" x="159" y="152" width="619" height="220.8"/>
	</defs>
	<clipPath id="SVGID_2_">
		<use xlink:href="#SVGID_1_"  overflow="visible"/>
	</clipPath>
	<path clip-path="url(#SVGID_2_)" fill="#006C6C" d="M737.5,369.2h3.4c0.1-3,0.2-6.4,0.2-10.4v-86.2c0-1.1,0-1.8,0.1-2.2
		c0.1-0.4,0.4-0.7,1-0.9c0.6-0.2,1.7-0.2,3.4-0.2c2.4,0,4,0.1,4.8,0.3c0.8,0.2,1.2,0.7,1.2,1.6c0,0.6-0.1,1.1-0.4,1.6
		c-0.7,0-1.4,0.1-1.9,0.2c-0.5,0.2-0.9,0.5-1.2,1.2c-0.3,0.6-0.5,1.7-0.5,3.4c-0.1,1.6-0.1,76.5-0.1,81.4c0,4,0.1,7.4,0.2,10.4
		c0,0,0.4,3.3-0.7,3.3h-8.3c-0.7,0-1.1-0.1-1.4-0.3c-0.2-0.2-0.4-0.6-0.4-1.2C737.1,370.4,737.2,369.8,737.5,369.2"/>
</g>
<rect x="740.8" y="239.1" fill="#006C6C" width="37.2" height="133.4"/>
<g>
	<defs>
		<rect id="SVGID_3_" x="159" y="152" width="619" height="220.8"/>
	</defs>
	<clipPath id="SVGID_4_">
		<use xlink:href="#SVGID_3_"  overflow="visible"/>
	</clipPath>
	<path clip-path="url(#SVGID_4_)" fill="#004E4D" d="M740.8,239.1c0-3.3,8.3-6.1,18.6-6.1c10.3,0,18.6,2.7,18.6,6.1
		c0,3.3-8.3,6.1-18.6,6.1C749.1,245.2,740.8,242.5,740.8,239.1"/>
</g>
<g>
	<defs>
		<path id="SVGID_5_" d="M737.3,268.1c-0.4,10.2,5.6,18.7,13.3,19c7.7,0.3,14.3-7.8,14.6-18c0.4-10.2-5.6-18.7-13.3-19
			c-0.1,0-0.3,0-0.4,0C744,250.1,737.7,258,737.3,268.1"/>
	</defs>
	<clipPath id="SVGID_6_">
		<use xlink:href="#SVGID_5_"  overflow="visible"/>
	</clipPath>
	<path clip-path="url(#SVGID_6_)" fill="#FFFFFF" d="M724.8,268.4c-0.2,6.9,5.1,12.7,12,12.9s12.7-5.1,12.9-12
		c0.2-6.9-5.1-12.7-12-12.9C730.8,256.1,725,261.5,724.8,268.4"/>
	<path clip-path="url(#SVGID_6_)" fill="#3F2305" d="M732.4,268.7c-0.1,2.7,2,4.9,4.7,5c2.7,0.1,4.9-2,5-4.7c0.1-2.7-2-4.9-4.7-5
		C734.8,263.9,732.5,266,732.4,268.7"/>
</g>
<g>
	<defs>
		<rect id="SVGID_7_" x="159" y="152" width="619" height="220.8"/>
	</defs>
	<clipPath id="SVGID_8_">
		<use xlink:href="#SVGID_7_"  overflow="visible"/>
	</clipPath>
	<path clip-path="url(#SVGID_8_)" fill="#713911" d="M414.9,231.9c-0.2,0-0.3,0.2-0.5,0.5c-2.2,1.9-11.3,9.2-25.4,9.2h-7.1h-18.5
		c-10.4,0-18.8,8.4-18.8,18.8v112.2h30.9h6.4h2c0.7,0,1.1-0.1,1.4-0.3c0.2-0.2,0.4-0.6,0.4-1.2c0-0.6-0.1-1.2-0.4-1.8h-3.3v-90.4
		h8.9c13.1,0.6,21.5,7.3,23.6,9.2c0.2,0.3,0.3,0.5,0.5,0.5c1.6,0,2.9-12.7,2.9-28.3C417.7,244.5,416.4,231.9,414.9,231.9"/>
	<path clip-path="url(#SVGID_8_)" fill="#B17F49" d="M414.9,288.4c-1.6,0-2.9-12.7-2.9-28.3c0-15.6,1.3-28.3,2.9-28.3
		c1.6,0,2.9,12.7,2.9,28.3C417.7,275.8,416.4,288.4,414.9,288.4"/>
	<path clip-path="url(#SVGID_8_)" fill="#FFFFFF" d="M377.2,298.4c0,6.9-5.6,1-12.5,1c-6.9,0-12.5,5.9-12.5-1
		c0-6.9,5.6-12.5,12.5-12.5C371.6,285.9,377.2,291.5,377.2,298.4"/>
</g>
<g>
	<defs>
		<path id="SVGID_9_" d="M352.2,298.4c0,6.9,5.6,1,12.5,1c6.9,0,12.5,5.9,12.5-1c0-6.9-5.6-12.5-12.5-12.5
			C357.8,285.9,352.2,291.5,352.2,298.4"/>
	</defs>
	<clipPath id="SVGID_10_">
		<use xlink:href="#SVGID_9_"  overflow="visible"/>
	</clipPath>
	<path clip-path="url(#SVGID_10_)" fill="#3F2305" d="M369.6,296.9c0,2.7-2.2,4.9-4.9,4.9c-2.7,0-4.9-2.2-4.9-4.9
		c0-2.7,2.2-4.9,4.9-4.9C367.4,292.1,369.6,294.2,369.6,296.9"/>
</g>
<g>
	<defs>
		<path id="SVGID_11_" d="M412,260.2c0,15.6,1.3,28.3,2.9,28.3c1.5,0,28.6-11.5,31.1-26.1v-4.4c-2.6-14.6-29.6-26.1-31.1-26.1
			C413.3,231.9,412,244.5,412,260.2"/>
	</defs>
	<clipPath id="SVGID_12_">
		<use xlink:href="#SVGID_11_"  overflow="visible"/>
	</clipPath>
	<path clip-path="url(#SVGID_12_)" fill="#09988C" d="M435.4,260.2c0,8.4-6.8,15.3-15.3,15.3c-8.4,0-15.3-6.8-15.3-15.3
		c0-8.4,6.8-15.3,15.3-15.3C428.6,244.9,435.4,251.7,435.4,260.2"/>
</g>
<g>
	<defs>
		<rect id="SVGID_13_" x="159" y="152" width="619" height="220.8"/>
	</defs>
	<clipPath id="SVGID_14_">
		<use xlink:href="#SVGID_13_"  overflow="visible"/>
	</clipPath>
	<path clip-path="url(#SVGID_14_)" fill="#713911" d="M193.8,301c-0.1,0-0.3,0-0.4,0l-32.2-5.6c-1.4-0.2-2.3-1.6-2.1-3
		c0.2-1.4,1.6-2.3,3-2.1l32.2,5.6c1.4,0.2,2.3,1.6,2.1,3C196.1,300.1,195,301,193.8,301"/>
	<path clip-path="url(#SVGID_14_)" fill="#713911" d="M193.8,312.2c-0.1,0-0.3,0-0.4,0l-32.2-5.6c-1.4-0.2-2.3-1.6-2.1-3
		c0.2-1.4,1.6-2.3,3-2.1l32.2,5.6c1.4,0.2,2.3,1.6,2.1,3C196.1,311.4,195,312.2,193.8,312.2"/>
	<path clip-path="url(#SVGID_14_)" fill="#B17F49" d="M161.6,306.6c-1.2,0-2.3-0.9-2.5-2.1c-0.2-1.4,0.7-2.7,2.1-3l32.2-5.6
		c1.4-0.2,2.7,0.7,3,2.1c0.2,1.4-0.7,2.7-2.1,3l-32.2,5.6C161.9,306.6,161.8,306.6,161.6,306.6"/>
	<path clip-path="url(#SVGID_14_)" fill="#713911" d="M193.8,323.5c-0.1,0-0.3,0-0.4,0l-32.2-5.6c-1.4-0.2-2.3-1.6-2.1-3
		c0.2-1.4,1.6-2.3,3-2.1l32.2,5.6c1.4,0.2,2.3,1.6,2.1,3C196.1,322.7,195,323.5,193.8,323.5"/>
	<path clip-path="url(#SVGID_14_)" fill="#99CEB0" d="M192.9,282.3c0,8.4-6.8,15.3-15.3,15.3c-8.4,0-15.3-6.8-15.3-15.3
		c0-8.4,6.8-15.3,15.3-15.3C186,267,192.9,273.8,192.9,282.3"/>
	<path clip-path="url(#SVGID_14_)" fill="#006C6C" d="M272.6,200.3c0,8.4-6.8,15.3-15.3,15.3c-8.4,0-15.3-6.8-15.3-15.3
		c0-8.4,6.8-15.3,15.3-15.3C265.8,185,272.6,191.9,272.6,200.3"/>
	<path clip-path="url(#SVGID_14_)" fill="#B17F49" d="M161.6,295.3c-1.2,0-2.3-0.9-2.5-2.1c-0.2-1.4,0.7-2.7,2.1-3l32.2-5.6
		c1.4-0.2,2.7,0.7,3,2.1c0.2,1.4-0.7,2.7-2.1,3l-32.2,5.6C161.9,295.3,161.8,295.3,161.6,295.3"/>
	<path clip-path="url(#SVGID_14_)" fill="#B17F49" d="M193.8,289.4h-32.4c-1.3,0-2.4-1.1-2.4-2.4c0-1.3,1.1-2.4,2.4-2.4h32.4
		c1.3,0,2.4,1.1,2.4,2.4C196.3,288.3,195.2,289.4,193.8,289.4"/>
	<path clip-path="url(#SVGID_14_)" fill="#B17F49" d="M199.6,369.2h-3.4c-0.1-3-0.2-6.4-0.2-10.4v-14.5c0-1.1,0-1.8-0.1-2.2
		c-0.1-0.4-0.4-0.7-1-0.9c-0.6-0.2-1.7-0.2-3.4-0.2c-2.4,0-4,0.1-4.8,0.3c-0.8,0.2-1.2,0.7-1.2,1.6c0,0.6,0.1,1.1,0.4,1.6
		c0.7,0,1.4,0.1,1.9,0.2c0.5,0.2,0.9,0.5,1.2,1.2c0.3,0.6,0.5,1.7,0.5,3.4c0.1,1.6,0.1,4.9,0.1,9.7c0,4-0.1,7.4-0.2,10.4
		c0,0-0.4,3.3,0.7,3.3h8.3c0.7,0,1.1-0.1,1.4-0.3c0.2-0.2,0.4-0.6,0.4-1.2C200,370.4,199.9,369.8,199.6,369.2"/>
</g>
<rect x="159.1" y="327" fill="#B17F49" width="37.2" height="45.5"/>
<g>
	<defs>
		<rect id="SVGID_15_" x="159" y="152" width="619" height="220.8"/>
	</defs>
	<clipPath id="SVGID_16_">
		<use xlink:href="#SVGID_15_"  overflow="visible"/>
	</clipPath>
	<path clip-path="url(#SVGID_16_)" fill="#B17F49" d="M196.3,327c0-3.3-8.3-6.1-18.6-6.1s-18.6,2.7-18.6,6.1c0,3.3,8.3,6.1,18.6,6.1
		S196.3,330.4,196.3,327"/>
	<path clip-path="url(#SVGID_16_)" fill="#FFFFFF" d="M190.2,339.8c0,6.9-5.6,12.5-12.5,12.5c-6.9,0-12.5-5.6-12.5-12.5
		c0-6.9,5.6-12.5,12.5-12.5C184.6,327.3,190.2,332.9,190.2,339.8"/>
	<path clip-path="url(#SVGID_16_)" fill="#3F2305" d="M182.6,339.8c0,2.7-2.2,4.9-4.9,4.9s-4.9-2.2-4.9-4.9c0-2.7,2.2-4.9,4.9-4.9
		S182.6,337.1,182.6,339.8"/>
	<path clip-path="url(#SVGID_16_)" fill="#B17F49" d="M161.6,317.9c-1.2,0-2.3-0.9-2.5-2.1c-0.2-1.4,0.7-2.7,2.1-3l32.2-5.6
		c1.4-0.2,2.7,0.7,3,2.1c0.2,1.4-0.7,2.7-2.1,3l-32.2,5.6C161.9,317.9,161.8,317.9,161.6,317.9"/>
	<path clip-path="url(#SVGID_16_)" fill="#B17F49" d="M161.6,329.2c-1.2,0-2.3-0.9-2.5-2.1c-0.2-1.4,0.7-2.7,2.1-3l32.2-5.6
		c1.4-0.2,2.7,0.7,3,2.1c0.2,1.4-0.7,2.7-2.1,3l-32.2,5.6C161.9,329.1,161.8,329.2,161.6,329.2"/>
	<path clip-path="url(#SVGID_16_)" fill="#99CEB0" d="M315.3,336.8c-10.1,0-18.3-8.2-18.3-18.3c0-10.1,8.2-18.3,18.3-18.3
		c10.1,0,18.3,8.2,18.3,18.3C333.6,328.6,325.4,336.8,315.3,336.8 M315.3,289.8c-15.9,0-28.7,12.9-28.7,28.7
		c0,15.9,12.9,28.7,28.7,28.7s28.7-12.9,28.7-28.7C344,302.7,331.1,289.8,315.3,289.8"/>
	<path clip-path="url(#SVGID_16_)" fill="#99CEB0" d="M315.3,336.8c-10.1,0-18.3-8.2-18.3-18.3c0-10.1,8.2-18.3,18.3-18.3
		c10.1,0,18.3,8.2,18.3,18.3C333.6,328.6,325.4,336.8,315.3,336.8 M315.3,264.7c-10.3,0-18.6,2.7-18.6,6.1v101.7h37.2V270.8
		C333.9,267.4,325.5,264.7,315.3,264.7"/>
	<path clip-path="url(#SVGID_16_)" fill="#99CEB0" d="M337.1,369.2h-3.4c-0.1-3-0.2-6.4-0.2-10.4v-14.5c0-1.1,0-1.8-0.1-2.2
		c-0.1-0.4-0.4-0.7-1-0.9c-0.6-0.2-1.7-0.2-3.4-0.2c-2.4,0-4,0.1-4.8,0.3c-0.8,0.2-1.2,0.7-1.2,1.6c0,0.6,0.1,1.1,0.4,1.6
		c0.7,0,1.4,0.1,1.9,0.2c0.5,0.2,0.9,0.5,1.2,1.2c0.3,0.6,0.5,1.7,0.5,3.4c0.1,1.6,0.1,4.9,0.1,9.7c0,4-0.1,7.4-0.2,10.4
		c0,0-0.4,3.3,0.7,3.3h8.3c0.7,0,1.1-0.1,1.4-0.3c0.2-0.2,0.4-0.6,0.4-1.2C337.6,370.4,337.4,369.8,337.1,369.2"/>
	<path clip-path="url(#SVGID_16_)" fill="#FFFFFF" d="M328.4,286.4c0,6.9-5.6,1-12.5,1c-6.9,0-12.5,5.9-12.5-1
		c0-6.9,5.6-12.5,12.5-12.5C322.8,273.9,328.4,279.5,328.4,286.4"/>
</g>
<g>
	<defs>
		<path id="SVGID_17_" d="M303.4,286.4c0,6.9,5.6,1,12.5,1c6.9,0,12.5,5.9,12.5-1c0-6.9-5.6-12.5-12.5-12.5
			C309,273.9,303.4,279.5,303.4,286.4"/>
	</defs>
	<clipPath id="SVGID_18_">
		<use xlink:href="#SVGID_17_"  overflow="visible"/>
	</clipPath>
	<path clip-path="url(#SVGID_18_)" fill="#3F2305" d="M320.8,284.9c0,2.7-2.2,4.9-4.9,4.9c-2.7,0-4.9-2.2-4.9-4.9
		c0-2.7,2.2-4.9,4.9-4.9C318.6,280.1,320.8,282.2,320.8,284.9"/>
</g>
<g>
	<defs>
		<path id="SVGID_19_" d="M298.9,244.7c0,8.6,6.9,15.5,15.5,15.5c8.6,0,15.5-6.9,15.5-15.5c0-8.5-6.9-15.5-15.5-15.5
			C305.8,229.2,298.9,236.1,298.9,244.7 M494.9,244.7c0,8.6,6.9,15.5,15.5,15.5c8.6,0,15.5-6.9,15.5-15.5c0-8.5-6.9-15.5-15.5-15.5
			C501.9,229.2,494.9,236.1,494.9,244.7 M332.1,178.8c-6,6-6,15.8,0,21.9c6,6,15.8,6,21.9,0c6-6,6-15.8,0-21.9c-3-3-7-4.5-10.9-4.5
			C339.1,174.2,335.2,175.7,332.1,178.8 M470.8,178.8c-6,6-6,15.8,0,21.9c6,6,15.8,6,21.9,0c6-6,6-15.8,0-21.9c-3-3-7-4.5-10.9-4.5
			C477.8,174.2,473.8,175.7,470.8,178.8 M396.9,167.5c0,8.5,6.9,15.5,15.5,15.5c8.6,0,15.5-6.9,15.5-15.5c0-8.6-6.9-15.5-15.5-15.5
			C403.8,152,396.9,159,396.9,167.5"/>
	</defs>
	<clipPath id="SVGID_20_">
		<use xlink:href="#SVGID_19_"  overflow="visible"/>
	</clipPath>
	
		<linearGradient id="SVGID_21_" gradientUnits="userSpaceOnUse" x1="-11.293" y1="483.787" x2="-10.4857" y2="483.787" gradientTransform="matrix(-281.2296 0 0 281.2296 -2650.0134 -135849.1406)">
		<stop  offset="0" style="stop-color:#C99D66"/>
		<stop  offset="0.4521" style="stop-color:#09988C"/>
		<stop  offset="0.9945" style="stop-color:#006D6C"/>
		<stop  offset="1" style="stop-color:#006D6C"/>
	</linearGradient>
	<rect x="298.9" y="152" clip-path="url(#SVGID_20_)" fill="url(#SVGID_21_)" width="227" height="108.1"/>
</g>
<g>
	<defs>
		<rect id="SVGID_22_" x="159" y="152" width="619" height="220.8"/>
	</defs>
	<clipPath id="SVGID_23_">
		<use xlink:href="#SVGID_22_"  overflow="visible"/>
	</clipPath>
	<path clip-path="url(#SVGID_23_)" fill="#09988C" d="M493.8,276.2c2-3.8,3.3-5.6,6.6-8.9c4.6,0.8,6.7,1.6,10.3,3.5
		c-3.4,2.3-4.8,3.8-7.1,6.7C500,276.4,498,276,493.8,276.2 M505.7,278.3c2.3-2.8,3.8-4.1,7.2-6.2c3.4,2.1,4.9,3.4,7.2,6.2
		c-3.3,1.4-4.8,2.3-7.2,4.5C510.5,280.6,509,279.6,505.7,278.3 M522.1,277.5c-2.3-3-3.7-4.4-7.1-6.7c3.7-1.9,5.8-2.7,10.3-3.5
		c3.3,3.3,4.6,5.1,6.6,8.9C527.7,276,525.7,276.3,522.1,277.5 M526.1,264.8c-3.5-3.4-5.6-4.9-10.3-7.3c5-1.9,7.7-2.5,13.6-2.9
		c4.5,3.7,6.5,5.8,9.6,10.2C533.5,264,530.9,264,526.1,264.8 M530.2,252.1c-4.8-3.7-7.5-5.4-13.5-7.9c6.3-1.8,9.7-2.3,16.7-2.3
		c5.8,4.1,8.3,6.5,12.6,11.6C539.5,252,536.2,251.7,530.2,252.1 M526.5,252.4c-5.9,0.7-8.7,1.5-13.6,3.7c-5-2.1-7.8-2.9-13.6-3.7
		c4.8-3.4,7.6-4.9,13.6-7C518.9,247.5,521.7,249,526.5,252.4 M509.2,244.2c-6,2.5-8.8,4.1-13.5,7.9c-6.1-0.3-9.3-0.1-15.8,1.4
		c4.3-5.2,6.8-7.6,12.6-11.6C499.5,241.9,502.9,242.4,509.2,244.2 M512.8,258.7c4.7,2.1,6.8,3.5,10.4,6.6c-4.6,1.1-6.7,1.9-10.4,4.1
		c-3.7-2.1-5.8-3-10.4-4.1C506,262.2,508.1,260.8,512.8,258.7 M496.3,254.6c5.8,0.4,8.6,1.1,13.5,2.9c-4.7,2.4-6.8,4-10.3,7.3
		c-4.8-0.7-7.4-0.8-12.8,0C489.9,260.4,491.8,258.3,496.3,254.6 M489.5,276.6c2.6,5,4.5,10.1,4.9,14.7v81.5h38.3v-79.9
		c0-5,2-10.7,4.9-16.2c-0.9-0.2-1.9-0.3-3-0.4c-1.9-4-3.2-5.9-6.4-9.4c4.7-0.5,7.3-0.4,12.6,0.7c0.4,0.7,0.7,1.3,1.1,1.8
		c0.8-1.2,1.5-2.4,2.3-3.5c-0.6-0.1-1.2-0.3-1.8-0.4c-3-4.8-4.9-7-9.3-11c6,0,9.1,0.4,15.5,2.3c0.4,0.6,0.8,1.2,1.2,1.7
		c0,0,0.1-0.1,0.1-0.1c1.5-0.8,2.7-1.7,3.6-2.6c-1-0.4-2.1-0.7-3.3-1.1c-4.1-5.6-6.6-8.1-12.2-12.6c2.5,0.2,4.6,0.4,6.5,0.6
		c-4.1-1.4-9.1-2.5-14.7-3.3c0.1,0,0.1,0.1,0.2,0.1c-7.2,0.4-10.6,1.1-16.9,3.3c-6.1-2.1-9.5-2.8-16.3-3.3
		c-4.8,0.7-9.2,1.7-12.8,2.8c1.3-0.1,2.7-0.3,4.3-0.4c-5.7,4.5-8.2,7-12.2,12.6c-0.8,0.3-1.6,0.5-2.4,0.8c0.8,0.9,1.8,1.7,3.1,2.4
		c0.2-0.3,0.5-0.7,0.7-1c6.3-1.9,9.5-2.3,15.5-2.3c-4.4,4-6.3,6.3-9.3,11c-0.2,0.1-0.4,0.1-0.6,0.2c0.6,0.8,1.2,1.7,1.7,2.6
		c0.1-0.2,0.2-0.4,0.3-0.6c5.2-1.1,7.8-1.2,12.5-0.7c-3.2,3.5-4.5,5.5-6.4,9.5C490.6,276.4,490,276.5,489.5,276.6"/>
	<path clip-path="url(#SVGID_23_)" fill="#09988C" d="M491,369.4h3.5c0.2-3,0.2-6.6,0.2-10.7v-15c0-1.1,0-1.9,0.1-2.3
		c0.1-0.4,0.4-23.2,1-23.4c0.6-0.2,1.8-0.2,3.5-0.2c2.5,0,4.1,0.1,5,0.3c0.9,0.2,1.3,0.7,1.3,1.6c0,0.6-0.1,23.6-0.4,24.1
		c-0.8,0-1.4,0.1-1.9,0.2c-0.5,0.2-0.9,0.6-1.2,1.2c-0.3,0.6-0.5,1.8-0.5,3.5c-0.1,1.7-0.1,5-0.1,10c0,4.1,0.1,7.7,0.2,10.7
		c0,0,0.5,3.4-0.7,3.4h-8.6c-0.7,0-1.2-0.1-1.4-0.3c-0.2-0.2-0.4-0.6-0.4-1.2C490.6,370.6,490.7,370,491,369.4"/>
	<path clip-path="url(#SVGID_23_)" fill="#FFFFFF" d="M500,309.6c0,7.1,5.8,12.9,12.9,12.9c7.1,0,12.8-5.8,12.8-12.9
		c0-7.1-5.8-12.9-12.8-12.9C505.8,296.7,500,302.5,500,309.6"/>
	<path clip-path="url(#SVGID_23_)" fill="#3F2305" d="M507.9,309.6c0,2.8,2.2,5,5,5c2.8,0,5-2.2,5-5c0-2.8-2.2-5-5-5
		C510.1,304.6,507.9,306.8,507.9,309.6"/>
	<path clip-path="url(#SVGID_23_)" fill="#09988C" d="M513.6,238.4c-23.1,0-41.8,5.9-41.8,13.3c0,2.4,2,4.7,5.6,6.6
		c6.4,8.1,16.1,22,17,33v81.5h38.3v-79.9c0-11.3,10.4-26.2,17.1-34.6c3.6-2,5.6-4.2,5.6-6.6C555.3,244.3,536.6,238.4,513.6,238.4
		 M513.6,240.9c23.9,0,39.2,6.4,39.2,10.7c0,1.3-1.6,2.9-4.3,4.4c-0.3,0.2-0.6,0.4-0.8,0.6c-8,10.1-17.6,24.6-17.6,36.2v77.3h-33.2
		v-78.9c0-0.1,0-0.1,0-0.2c-0.9-11.3-10-25-17.5-34.4c-0.2-0.3-0.5-0.5-0.8-0.6c-2.7-1.5-4.2-3.1-4.2-4.4
		C474.4,247.3,489.6,240.9,513.6,240.9"/>
	<path clip-path="url(#SVGID_23_)" fill="#006C6C" d="M522.6,269.1c0,1.4,11.4,2.6,25.5,2.6c14.1,0,25.5-1.2,25.5-2.6
		c0-1.4-11.4-2.6-25.5-2.6C534.1,266.5,522.6,267.6,522.6,269.1"/>
	<path clip-path="url(#SVGID_23_)" fill="#006C6C" d="M573.7,269.1c0,0-8.7,8.8-8.7,23.5c0,14.7-23.7,1.4-23.7,1.4l2.5-24.9H573.7z"
		/>
	<path clip-path="url(#SVGID_23_)" fill="#006C6C" d="M522.6,269.1c0,0,8.7,8.8,8.7,23.5c0,14.7,23.7,1.4,23.7,1.4l-2.5-24.9H522.6z
		"/>
	<path clip-path="url(#SVGID_23_)" fill="#09988C" d="M521.5,277.2c0,1.5,11.9,2.7,26.7,2.7c14.7,0,26.7-1.2,26.7-2.7
		c0-1.5-11.9-2.7-26.7-2.7C533.4,274.5,521.5,275.7,521.5,277.2"/>
	<path clip-path="url(#SVGID_23_)" fill="#09988C" d="M574.8,277.2c0,0-9.1,9.2-9.1,24.5c0,15.4-24.8,1.5-24.8,1.5l2.7-26H574.8z"/>
	<path clip-path="url(#SVGID_23_)" fill="#09988C" d="M521.5,277.2c0,0,9.1,9.2,9.1,24.5c0,15.4,24.8,1.5,24.8,1.5l-2.7-26H521.5z"
		/>
	<path clip-path="url(#SVGID_23_)" fill="#99CEB0" d="M518.4,286.6c0,1.7,13.3,3,29.7,3c16.4,0,29.7-1.4,29.7-3c0-1.7-13.3-3-29.7-3
		C531.7,283.5,518.4,284.9,518.4,286.6"/>
	<path clip-path="url(#SVGID_23_)" fill="#99CEB0" d="M577.9,286.6c0,0-10.2,10.2-10.2,27.4c0,17.2-27.6,1.7-27.6,1.7l3-29H577.9z"
		/>
	<path clip-path="url(#SVGID_23_)" fill="#99CEB0" d="M518.4,286.6c0,0,10.2,10.2,10.2,27.4c0,17.2,27.6,1.7,27.6,1.7l-3-29H518.4z"
		/>
	<path clip-path="url(#SVGID_23_)" fill="#99CEB0" d="M525.1,369.3h3.5c0.2-3.1,0.2-6.8,0.2-11V343c0-1.1,0-1.9,0.1-2.4
		c0.1-0.5,0.4-0.8,1.1-0.9c0.6-0.2,1.8-0.3,3.6-0.3c2.5,0,4.2,0.1,5.1,0.3c0.9,0.2,1.3,0.8,1.3,1.7c0,0.6-0.1,1.2-0.4,1.7
		c-0.8,0-1.4,0.1-2,0.2c-0.5,0.2-0.9,0.6-1.2,1.2c-0.3,0.6-0.5,1.8-0.6,3.6c-0.1,1.7-0.1,5.1-0.1,10.3c0,4.2,0.1,7.9,0.2,11
		c0,0,0.5,3.5-0.8,3.5h-8.8c-0.7,0-1.2-0.1-1.4-0.3c-0.2-0.2-0.4-0.6-0.4-1.2C524.7,370.5,524.8,369.9,525.1,369.3"/>
</g>
<rect x="528.5" y="307.5" fill="#99CEB0" width="39.1" height="65.3"/>
<g>
	<defs>
		<rect id="SVGID_24_" x="159" y="152" width="619" height="220.8"/>
	</defs>
	<clipPath id="SVGID_25_">
		<use xlink:href="#SVGID_24_"  overflow="visible"/>
	</clipPath>
	<path clip-path="url(#SVGID_25_)" fill="#FFFFFF" d="M534.3,321c0,7.3,5.9,13.2,13.1,13.2c7.2,0,13.1-5.9,13.1-13.2
		c0-7.3-5.9-13.2-13.1-13.2C540.2,307.8,534.3,313.7,534.3,321"/>
	<path clip-path="url(#SVGID_25_)" fill="#3F2305" d="M542.5,320.8c0,2.8,2.3,5.2,5.1,5.2s5.1-2.3,5.1-5.2c0-2.8-2.3-5.2-5.1-5.2
		S542.5,317.9,542.5,320.8"/>
	<path clip-path="url(#SVGID_25_)" fill="#B17F49" d="M690.2,334.5c-10.8,0-19.5-8.7-19.5-19.5c0-10.8,8.7-19.5,19.5-19.5
		c10.8,0,19.5,8.7,19.5,19.5C709.7,325.7,701,334.5,690.2,334.5 M690.2,284.2c-16.9,0-30.7,13.7-30.7,30.7
		c0,16.9,13.7,30.7,30.7,30.7c16.9,0,30.7-13.7,30.7-30.7C720.9,298,707.2,284.2,690.2,284.2"/>
	<path clip-path="url(#SVGID_25_)" fill="#B17F49" d="M690.2,334.5c-10.8,0-19.5-8.7-19.5-19.5c0-10.8,8.7-19.5,19.5-19.5
		c10.8,0,19.5,8.7,19.5,19.5C709.7,325.7,701,334.5,690.2,334.5 M690.2,257.5c-11,0-19.9,2.9-19.9,6.5v108.6h39.7V264
		C710.1,260.4,701.2,257.5,690.2,257.5"/>
	<path clip-path="url(#SVGID_25_)" fill="#B17F49" d="M713.6,369H710c-0.2-3.2-0.2-6.8-0.2-11.1v-15.5c0-1.1,0-1.9-0.1-2.4
		c-0.1-0.5-0.5-0.8-1.1-1c-0.6-0.2-1.8-0.3-3.6-0.3c-2.5,0-4.3,0.1-5.1,0.3c-0.9,0.2-1.3,0.8-1.3,1.7c0,0.6,0.1,1.2,0.4,1.7
		c0.8,0,1.5,0.1,2,0.2c0.5,0.2,0.9,0.6,1.2,1.2c0.3,0.7,0.5,1.9,0.6,3.6c0.1,1.7,0.1,5.2,0.1,10.4c0,4.2-0.1,7.9-0.2,11.1
		c0,0-0.5,3.5,0.8,3.5h8.9c0.7,0,1.2-0.1,1.5-0.3c0.2-0.2,0.4-0.6,0.4-1.3C714,370.2,713.9,369.6,713.6,369"/>
	<path clip-path="url(#SVGID_25_)" fill="#FFFFFF" d="M704.2,280.7c0,7.4-6,1.1-13.3,1.1c-7.4,0-13.3,6.2-13.3-1.1s6-13.3,13.3-13.3
		C698.2,267.3,704.2,273.3,704.2,280.7"/>
</g>
<g>
	<defs>
		<path id="SVGID_26_" d="M677.6,280.7c0,7.4,6,1.1,13.3,1.1c7.4,0,13.3,6.2,13.3-1.1s-6-13.3-13.3-13.3
			C683.5,267.3,677.6,273.3,677.6,280.7"/>
	</defs>
	<clipPath id="SVGID_27_">
		<use xlink:href="#SVGID_26_"  overflow="visible"/>
	</clipPath>
	<path clip-path="url(#SVGID_27_)" fill="#3F2305" d="M696.1,279.1c0,2.9-2.3,5.2-5.2,5.2c-2.9,0-5.2-2.3-5.2-5.2
		c0-2.9,2.3-5.2,5.2-5.2C693.8,273.9,696.1,276.2,696.1,279.1"/>
</g>
<g>
	<defs>
		<rect id="SVGID_28_" x="159" y="152" width="619" height="220.8"/>
	</defs>
	<clipPath id="SVGID_29_">
		<use xlink:href="#SVGID_28_"  overflow="visible"/>
	</clipPath>
	<path clip-path="url(#SVGID_29_)" fill="#09988C" d="M704.8,314.9c0,8-6.5,14.6-14.6,14.6c-8,0-14.6-6.5-14.6-14.6
		c0-8,6.5-14.6,14.6-14.6C698.3,300.4,704.8,306.9,704.8,314.9"/>
	<path clip-path="url(#SVGID_29_)" fill="#C99D66" d="M257.3,224.9c-16.6,0-30,1.4-30,3v0.2c0.3,0.2,3,3.4,6,7.1
		c0,0,3.4,4.2,4.1,15.7c0.1,2.8-0.3,5.7-1.6,7.6c-0.9,1.3-2.1,3-3.4,4.7c0,0-4.6,6.2-4.6,14.9c0,8.7,4.6,14.8,4.6,14.8
		c2.9,3.9,5.2,10.9,5.2,15.7v0.4v63.5h39.5v-63.5v-0.4c0-4.8,2.3-11.9,5.2-15.8c0,0,4.5-6.1,4.5-14.8c0-8.7-4.6-14.9-4.6-14.9
		c-1.4-1.8-2.6-3.6-3.5-4.9c-1.1-1.7-1.5-4.3-1.5-6.8c0.6-12,4.1-16.3,4.1-16.3c3-3.7,5.7-6.9,6-7.1v-0.2
		C287.3,226.2,273.9,224.9,257.3,224.9"/>
</g>
<g>
	<defs>
		<path id="SVGID_30_" d="M227.3,227.9v0.2c0.3,0.2,3,3.4,6,7.1c0,0,3.4,4.2,4.1,15.7c0.1,2.8-0.3,5.7-1.6,7.6
			c-0.9,1.3-2.1,3-3.4,4.7c0,0-4.6,6.2-4.6,14.9c0,8.7,4.6,14.8,4.6,14.8c2.9,3.9,5.2,10.9,5.2,15.7v0.4v63.5h39.5v-63.5v-0.4
			c0-4.8,2.3-11.9,5.2-15.8c0,0,4.5-6.1,4.5-14.8c0-8.7-4.6-14.9-4.6-14.9c-1.4-1.8-2.6-3.6-3.5-4.9c-1.1-1.7-1.5-4.3-1.5-6.8
			c0.6-12,4.1-16.3,4.1-16.3c3-3.7,5.7-6.9,6-7.1v-0.2c0-1.7-13.4-3-30-3C240.8,224.9,227.3,226.2,227.3,227.9"/>
	</defs>
	<clipPath id="SVGID_31_">
		<use xlink:href="#SVGID_30_"  overflow="visible"/>
	</clipPath>
	<path clip-path="url(#SVGID_31_)" fill="#B17F49" d="M272.6,241c0,8.4-6.8,15.3-15.3,15.3c-8.4,0-15.3-6.8-15.3-15.3
		c0-8.4,6.8-15.3,15.3-15.3C265.8,225.7,272.6,232.6,272.6,241"/>
</g>
<g>
	<defs>
		<rect id="SVGID_32_" x="159" y="152" width="619" height="220.8"/>
	</defs>
	<clipPath id="SVGID_33_">
		<use xlink:href="#SVGID_32_"  overflow="visible"/>
	</clipPath>
	<path clip-path="url(#SVGID_33_)" fill="#C99D66" d="M280.6,369.1H277c-0.2-3.1-0.2-6.8-0.2-11v-15.4c0-1.1,0-1.9-0.1-2.4
		c-0.1-0.5-0.5-0.8-1.1-0.9c-0.6-0.2-1.8-0.3-3.6-0.3c-2.5,0-4.2,0.1-5.1,0.3c-0.9,0.2-1.3,0.8-1.3,1.7c0,0.6,0.1,1.2,0.4,1.7
		c0.8,0,1.4,0.1,2,0.2c0.5,0.2,0.9,0.6,1.2,1.2c0.3,0.7,0.5,1.8,0.6,3.6c0.1,1.7,0.1,5.2,0.1,10.3c0,4.2-0.1,7.9-0.2,11
		c0,0-0.5,3.5,0.8,3.5h8.8c0.7,0,1.2-0.1,1.5-0.3c0.2-0.2,0.4-0.6,0.4-1.3C281,370.3,280.9,369.6,280.6,369.1"/>
</g>
<g>
	<defs>
		<path id="SVGID_34_" d="M265.1,304.4c-8.2,0.3-14.5,9.3-14.1,20.1c0.4,10.8,7.3,19.4,15.5,19.1c8.2-0.3,14.5-9.3,14.1-20.1
			c-0.4-10.6-7.1-19.1-15.1-19.1C265.4,304.4,265.3,304.4,265.1,304.4"/>
	</defs>
	<clipPath id="SVGID_35_">
		<use xlink:href="#SVGID_34_"  overflow="visible"/>
	</clipPath>
	<path clip-path="url(#SVGID_35_)" fill="#FFFFFF" d="M293.9,323.8c0.3,7.3-5.5,13.4-12.8,13.7c-7.3,0.3-13.4-5.5-13.7-12.8
		c-0.3-7.3,5.4-13.4,12.8-13.7C287.5,310.8,293.6,316.5,293.9,323.8"/>
	<path clip-path="url(#SVGID_35_)" fill="#3F2305" d="M285.8,324.1c0.1,2.8-2.1,5.2-5,5.3c-2.8,0.1-5.2-2.1-5.3-5
		c-0.1-2.8,2.1-5.2,5-5.3C283.3,319,285.7,321.2,285.8,324.1"/>
</g>
<g>
	<defs>
		<rect id="SVGID_36_" x="159" y="152" width="619" height="220.8"/>
	</defs>
	<clipPath id="SVGID_37_">
		<use xlink:href="#SVGID_36_"  overflow="visible"/>
	</clipPath>
	<path clip-path="url(#SVGID_37_)" fill="#B17F49" d="M272.6,279c0,8.4-6.8,15.3-15.3,15.3c-8.4,0-15.3-6.8-15.3-15.3
		c0-8.4,6.8-15.3,15.3-15.3C265.8,263.7,272.6,270.5,272.6,279"/>
	<path clip-path="url(#SVGID_37_)" fill="#B17F49" d="M257.3,233.9c16.6,0,30-4.1,30-6.4c0-2.3-13.4-5-30-5s-30,2.8-30,5
		C227.3,229.8,240.8,233.9,257.3,233.9"/>
</g>
<g>
	<defs>
		<path id="SVGID_38_" d="M227.3,227.5c0,2.3,13.4,6.4,30,6.4c16.6,0,30-4.1,30-6.4c0-2.3-13.4-5-30-5
			C240.8,222.5,227.3,225.3,227.3,227.5"/>
	</defs>
	<clipPath id="SVGID_39_">
		<use xlink:href="#SVGID_38_"  overflow="visible"/>
	</clipPath>
	<path clip-path="url(#SVGID_39_)" fill="#09988C" d="M272.6,241c0,8.4-6.8,15.3-15.3,15.3c-8.4,0-15.3-6.8-15.3-15.3
		c0-8.4,6.8-15.3,15.3-15.3C265.8,225.7,272.6,232.6,272.6,241"/>
</g>
<g>
	<defs>
		<rect id="SVGID_40_" x="159" y="152" width="619" height="220.8"/>
	</defs>
	<clipPath id="SVGID_41_">
		<use xlink:href="#SVGID_40_"  overflow="visible"/>
	</clipPath>
	<path clip-path="url(#SVGID_41_)" fill="#713911" d="M627.4,369.2h-3.7c-0.2-3.3-0.2-7.1-0.2-11.5v-16c0-1.2,0-2-0.1-2.5
		c-0.1-0.5-0.5-0.8-1.1-1c-0.7-0.2-1.9-0.3-3.8-0.3c-2.6,0-4.4,0.1-5.3,0.3c-0.9,0.2-1.4,0.8-1.4,1.8c0,0.7,0.2,1.2,0.5,1.7
		c0.8,0,1.5,0.1,2.1,0.2c0.5,0.2,1,0.6,1.3,1.3c0.3,0.7,0.5,1.9,0.6,3.7c0.1,1.8,0.1,5.4,0.1,10.7c0,4.4-0.1,8.2-0.2,11.5
		c0,0-0.5,3.6,0.8,3.6h9.2c0.7,0,1.3-0.1,1.5-0.4c0.3-0.2,0.4-0.7,0.4-1.3C627.9,370.4,627.7,369.8,627.4,369.2"/>
</g>
<rect x="582.7" y="304.7" fill="#713911" width="41.1" height="68.1"/>
<g>
	<defs>
		<rect id="SVGID_42_" x="159" y="152" width="619" height="220.8"/>
	</defs>
	<clipPath id="SVGID_43_">
		<use xlink:href="#SVGID_42_"  overflow="visible"/>
	</clipPath>
	<path clip-path="url(#SVGID_43_)" fill="#3F2305" d="M623.8,304.7c0-3.7-9.2-6.7-20.6-6.7s-20.6,3-20.6,6.7c0,3.7,9.2,6.7,20.6,6.7
		S623.8,308.4,623.8,304.7"/>
</g>
<g>
	<defs>
		<path id="SVGID_44_" d="M582.7,304.7c0,3.7,9.2,6.7,20.6,6.7c11.4,0,20.6-3,20.6-6.7c0-3.7-9.2-6.7-20.6-6.7
			C591.9,298,582.7,301,582.7,304.7"/>
	</defs>
	<clipPath id="SVGID_45_">
		<use xlink:href="#SVGID_44_"  overflow="visible"/>
	</clipPath>
	<path clip-path="url(#SVGID_45_)" fill="#09988C" d="M618.4,316.4c0,8.4-6.8,15.3-15.3,15.3c-8.4,0-15.3-6.8-15.3-15.3
		c0-8.4,6.8-15.3,15.3-15.3C611.5,301.1,618.4,308,618.4,316.4"/>
</g>
<g>
	<defs>
		<rect id="SVGID_46_" x="159" y="152" width="619" height="220.8"/>
	</defs>
	<clipPath id="SVGID_47_">
		<use xlink:href="#SVGID_46_"  overflow="visible"/>
	</clipPath>
	<path clip-path="url(#SVGID_47_)" fill="#FFFFFF" d="M617.7,334.2c0,7.6-6.2,1.2-13.8,1.2c-7.6,0-13.8,6.5-13.8-1.2
		c0-7.6,6.2-13.8,13.8-13.8C611.5,320.5,617.7,326.6,617.7,334.2"/>
</g>
<g>
	<defs>
		<path id="SVGID_48_" d="M590.1,334.2c0,7.6,6.2,1.2,13.8,1.2c7.6,0,13.8,6.5,13.8-1.2c0-7.6-6.2-13.8-13.8-13.8
			C596.3,320.5,590.1,326.6,590.1,334.2"/>
	</defs>
	<clipPath id="SVGID_49_">
		<use xlink:href="#SVGID_48_"  overflow="visible"/>
	</clipPath>
	<path clip-path="url(#SVGID_49_)" fill="#3F2305" d="M609.3,332.6c0,3-2.4,5.4-5.4,5.4c-3,0-5.4-2.4-5.4-5.4c0-3,2.4-5.4,5.4-5.4
		C606.9,327.2,609.3,329.6,609.3,332.6"/>
</g>
<g>
	<defs>
		<rect id="SVGID_50_" x="159" y="152" width="619" height="220.8"/>
	</defs>
	<clipPath id="SVGID_51_">
		<use xlink:href="#SVGID_50_"  overflow="visible"/>
	</clipPath>
	<path clip-path="url(#SVGID_51_)" fill="#006C6C" d="M207.7,369.2h3.4c0.1-3,0.2-6.4,0.2-10.4v-22.4c0-1.1,0-1.8,0.1-2.2
		c0.1-0.4,0.4-0.7,1-0.9c0.6-0.2,1.7-0.2,3.4-0.2c2.4,0,4,0.1,4.8,0.3c0.8,0.2,1.2,0.7,1.2,1.6c0,0.6-0.1,1.1-0.4,1.6
		c-0.7,0-1.4,0.1-1.9,0.2c-0.5,0.2-0.9,0.5-1.2,1.2c-0.3,0.6-0.5,1.7-0.5,3.4c-0.1,1.6-0.1,12.8-0.1,17.6c0,4,0.1,7.4,0.2,10.4
		c0,0,0.4,3.3-0.7,3.3H209c-0.7,0-1.1-0.1-1.4-0.3c-0.2-0.2-0.4-0.6-0.4-1.2C207.2,370.4,207.4,369.8,207.7,369.2"/>
</g>
<rect x="210.9" y="302.9" fill="#006C6C" width="37.2" height="69.7"/>
<g>
	<defs>
		<rect id="SVGID_52_" x="159" y="152" width="619" height="220.8"/>
	</defs>
	<clipPath id="SVGID_53_">
		<use xlink:href="#SVGID_52_"  overflow="visible"/>
	</clipPath>
	<path clip-path="url(#SVGID_53_)" fill="#006C6C" d="M210.9,302.9c0-3.3,8.3-6.1,18.6-6.1c10.3,0,18.6,2.7,18.6,6.1
		c0,3.3-8.3,6.1-18.6,6.1C219.3,308.9,210.9,306.2,210.9,302.9"/>
	<path clip-path="url(#SVGID_53_)" fill="#FFFFFF" d="M217.1,320.5c0,6.9,5.6,1,12.5,1c6.9,0,12.5,5.9,12.5-1
		c0-6.9-5.6-12.5-12.5-12.5C222.7,308,217.1,313.6,217.1,320.5"/>
</g>
<g>
	<defs>
		<path id="SVGID_54_" d="M217.1,320.5c0,6.9,5.6,1,12.5,1c6.9,0,12.5,5.9,12.5-1c0-6.9-5.6-12.5-12.5-12.5
			C222.7,308,217.1,313.6,217.1,320.5"/>
	</defs>
	<clipPath id="SVGID_55_">
		<use xlink:href="#SVGID_54_"  overflow="visible"/>
	</clipPath>
	<path clip-path="url(#SVGID_55_)" fill="#3F2305" d="M224.7,319c0,2.7,2.2,4.9,4.9,4.9c2.7,0,4.9-2.2,4.9-4.9
		c0-2.7-2.2-4.9-4.9-4.9C226.9,314.2,224.7,316.3,224.7,319"/>
</g>
<g>
	<defs>
		<rect id="SVGID_56_" x="159" y="152" width="619" height="220.8"/>
	</defs>
	<clipPath id="SVGID_57_">
		<use xlink:href="#SVGID_56_"  overflow="visible"/>
	</clipPath>
	<path clip-path="url(#SVGID_57_)" fill="#006C6C" d="M245.9,305.1c0,0,15.7-3,14.9-17.4c0,0-0.6-3.6-4.4-3.9
		c-3.9-0.3-1.1,4.3-1.9,6.8c-0.8,2.6-4.4,7.5-10.8,8.6C237.3,300.4,245.9,305.1,245.9,305.1"/>
	<path clip-path="url(#SVGID_57_)" fill="#006C6C" d="M211.8,305.1c0,0-15.7-3-14.9-17.4c0,0,0.6-3.6,4.4-3.9
		c3.9-0.3,1.1,4.3,1.9,6.8c0.8,2.6,4.4,7.5,10.8,8.6C220.3,300.4,211.8,305.1,211.8,305.1"/>
	<path clip-path="url(#SVGID_57_)" fill="#09988C" d="M773.1,202.6c0,8.4-6.8,15.3-15.3,15.3c-8.4,0-15.3-6.8-15.3-15.3
		c0-8.4,6.8-15.3,15.3-15.3C766.2,187.3,773.1,194.2,773.1,202.6"/>
</g>
</svg>
