<?xml version="1.0" encoding="utf-8"?>
<!-- Generator: Adobe Illustrator 18.0.0, SVG Export Plug-In . SVG Version: 6.00 Build 0)  -->
<!DOCTYPE svg PUBLIC "-//W3C//DTD SVG 1.1//EN" "http://www.w3.org/Graphics/SVG/1.1/DTD/svg11.dtd">
<svg version="1.1" id="Capa_1" xmlns="http://www.w3.org/2000/svg" xmlns:xlink="http://www.w3.org/1999/xlink" x="0px" y="0px"
	 width="196.1px" height="23.4px" viewBox="0 0 196.1 23.4" enable-background="new 0 0 196.1 23.4" xml:space="preserve">
<g>
	<defs>
		<rect id="SVGID_1_" x="0.2" y="0.3" width="195.7" height="22.8"/>
	</defs>
	<clipPath id="SVGID_2_">
		<use xlink:href="#SVGID_1_"  overflow="visible"/>
	</clipPath>
	<path clip-path="url(#SVGID_2_)" fill="#C99D66" d="M192.7,3.6c-1-1-2.2-1.8-3.5-2.4c-1.3-0.6-2.8-0.9-4.3-0.9
		c-1.5,0-3,0.3-4.3,0.9c-0.3,0.1-0.5,0.2-0.7,0.4l2.1,4.2c0.2-0.1,0.3-0.2,0.5-0.3c0.8-0.4,1.6-0.5,2.5-0.5c0.9,0,1.7,0.2,2.5,0.5
		c0.8,0.3,1.5,0.8,2,1.4c0.6,0.6,1,1.3,1.4,2.1c0.3,0.8,0.5,1.7,0.5,2.6c0,0.9-0.2,1.8-0.5,2.6c-0.3,0.8-0.8,1.5-1.4,2.1
		c-0.5,0.5-1,0.9-1.6,1.2l2.1,4.1c1-0.6,2-1.2,2.8-2.1c1-1,1.8-2.2,2.4-3.6c0.6-1.4,0.9-2.8,0.9-4.4s-0.3-3-0.9-4.4
		C194.4,5.8,193.7,4.7,192.7,3.6"/>
	<path clip-path="url(#SVGID_2_)" fill="#C99D66" d="M39.2,21.6l-2.1-4.2c-0.2,0.1-0.3,0.2-0.5,0.3c-0.8,0.3-1.6,0.5-2.5,0.5
		c-0.9,0-1.7-0.2-2.5-0.5c-0.8-0.3-1.5-0.8-2-1.4c-0.6-0.6-1-1.3-1.4-2.1c-0.3-0.8-0.5-1.7-0.5-2.6s0.2-1.8,0.5-2.6
		c0.3-0.8,0.8-1.5,1.4-2.1c0.5-0.5,1-0.9,1.6-1.2l-2.1-4.1c-1,0.5-2,1.2-2.8,2.1c-1,1-1.8,2.2-2.4,3.6c-0.6,1.4-0.9,2.8-0.9,4.4
		c0,1.6,0.3,3,0.9,4.4c0.6,1.4,1.4,2.6,2.4,3.6c1,1,2.2,1.8,3.5,2.4c1.3,0.6,2.8,0.9,4.3,0.9c1.5,0,3-0.3,4.3-0.9
		C38.8,21.9,39,21.7,39.2,21.6"/>
	<path clip-path="url(#SVGID_2_)" fill="#713911" d="M187.8,17.5c-0.1,0.1-0.3,0.2-0.4,0.2c-0.8,0.3-1.6,0.5-2.5,0.5
		c-0.9,0-1.7-0.2-2.5-0.5c-0.8-0.4-1.5-0.8-2.1-1.4c-0.6-0.6-1.1-1.3-1.4-2.1c-0.3-0.8-0.5-1.7-0.5-2.6c0-0.9,0.2-1.8,0.5-2.6
		c0.3-0.8,0.8-1.5,1.4-2.1c0.5-0.5,1-0.9,1.6-1.2l-2.1-4.2c-1,0.5-1.9,1.2-2.7,2.1c-1,1-1.8,2.2-2.4,3.6c-0.6,1.4-0.9,2.8-0.9,4.4
		c0,1.6,0.3,3,0.9,4.4c0.6,1.4,1.4,2.6,2.4,3.6c1,1,2.2,1.8,3.5,2.4c1.3,0.6,2.8,0.9,4.3,0.9c1.5,0,3-0.3,4.3-0.9
		c0.2-0.1,0.5-0.2,0.7-0.4L187.8,17.5z"/>
	<path clip-path="url(#SVGID_2_)" fill="#713911" d="M44.3,7.2C43.8,5.8,43,4.7,42,3.6c-1-1-2.2-1.8-3.5-2.4
		c-1.3-0.6-2.8-0.9-4.3-0.9c-1.5,0-3,0.3-4.3,0.9c-0.2,0.1-0.5,0.2-0.7,0.4l2.1,4.1c0.1-0.1,0.3-0.2,0.4-0.2C32.5,5.1,33.3,5,34.2,5
		c0.9,0,1.7,0.2,2.5,0.5c0.8,0.3,1.5,0.8,2.1,1.4c0.6,0.6,1.1,1.3,1.4,2.1c0.3,0.8,0.5,1.7,0.5,2.6c0,0.9-0.2,1.8-0.5,2.6
		c-0.3,0.8-0.8,1.5-1.4,2.1c-0.5,0.5-1,0.9-1.6,1.2l2.1,4.2c1-0.6,1.9-1.2,2.7-2.1c1-1,1.8-2.2,2.4-3.6c0.6-1.4,0.9-2.8,0.9-4.4
		C45.2,10,44.9,8.6,44.3,7.2"/>
	<path clip-path="url(#SVGID_2_)" fill="#713911" d="M20,18.3C20,18.3,20.1,18.2,20,18.3c0.1-0.1,0.1-0.1,0.1-0.2
		c0.2-0.3,0.2-0.8-0.1-1.1l-2-2.1c-0.3-0.3-1-0.4-1.2,0v0c-0.2,0.3-0.3,0.6-0.6,0.8c-0.4,0.5-0.8,0.9-1.4,1.3
		c-0.5,0.4-1.1,0.7-1.7,0.9c-0.6,0.2-1.3,0.3-2,0.3c-0.9,0-1.7-0.2-2.5-0.5c-0.8-0.3-1.5-0.8-2.1-1.4c-0.6-0.6-1-1.3-1.4-2.1
		c-0.3-0.8-0.5-1.7-0.5-2.6c0-0.9,0.2-1.8,0.5-2.6C5.6,8.2,6,7.5,6.6,6.9c0.6-0.6,1.3-1.1,2.1-1.4C9.5,5.1,10.3,5,11.2,5
		c0.7,0,1.3,0.1,2,0.3c0.6,0.2,1.2,0.5,1.7,0.9c0.5,0.4,1,0.8,1.4,1.3c0.2,0.3,0.4,0.5,0.5,0.8v0c0.2,0.4,0.9,0.4,1.2,0L20,6.2
		c0.3-0.3,0.3-0.7,0.2-1c-0.4-0.6-0.9-1.1-1.4-1.7c-0.7-0.7-1.4-1.2-2.2-1.7C15.8,1.3,15,1,14,0.7c-0.9-0.3-1.9-0.4-2.9-0.4
		c-1.5,0-3,0.3-4.3,0.9C5.6,1.8,4.4,2.6,3.4,3.6c-1,1-1.8,2.2-2.4,3.6C0.5,8.6,0.2,10,0.2,11.6c0,1.6,0.3,3,0.9,4.4
		c0.6,1.4,1.4,2.6,2.4,3.6c1,1,2.2,1.8,3.5,2.4c1.3,0.6,2.8,0.9,4.3,0.9c1,0,1.9-0.1,2.9-0.4c0.9-0.3,1.8-0.6,2.6-1.1
		c0.8-0.5,1.5-1,2.2-1.7C19.3,19.3,19.7,18.8,20,18.3L20,18.3z"/>
	<path clip-path="url(#SVGID_2_)" fill="#713911" d="M53.4,0.3h-3.5c-0.5,0-0.9,0.4-0.9,0.9V22l0,0c0,0.5,0.4,0.9,0.9,0.9h3
		c0.5,0,0.9-0.4,0.9-0.9V11.6L57.5,22v0c0.2,0.5,0.4,0.9,0.9,0.9h3c0.5,0,0.7-0.4,0.9-0.9l3.7-10.3V22c0,0.5,0.4,0.9,0.9,0.9h3
		c0.5,0,0.9-0.4,0.9-0.9l0,0V1.2c0-0.5-0.4-0.9-0.9-0.9h-3.5c-0.5,0-0.7,0.4-0.8,0.9v0l-5.5,14.6L54.2,1.2
		C54.1,0.7,53.9,0.3,53.4,0.3"/>
	<path clip-path="url(#SVGID_2_)" fill="#713911" d="M141.2,0.3L141.2,0.3c-0.5,0-0.8,0.4-0.9,0.9v2.9c0,0.5,0.4,0.9,0.9,0.9l0,0
		h4.3v17c0,0.5,0.4,0.9,0.9,0.9h2.9c0.5,0,0.9-0.4,0.9-0.9V5h4.2l0,0c0.5,0,0.9-0.4,0.9-0.9V1.2c0-0.5-0.4-0.9-0.9-0.9l0,0H141.2z"
		/>
	<path clip-path="url(#SVGID_2_)" fill="#713911" d="M168.9,0.4H166c-0.5,0-0.8,0.4-0.8,0.9v0V22v0c0,0.5,0.4,0.9,0.9,0.9h2.8
		c0.5,0,0.9-0.4,0.9-0.9V1.3C169.8,0.8,169.4,0.4,168.9,0.4"/>
	<path clip-path="url(#SVGID_2_)" fill="#713911" d="M102.4,14.9l2.8-8.1l2.8,8.1H102.4z M111.4,22.9h3.3c0.5,0,1-0.4,0.9-0.9l0,0
		l-7.3-20.8c-0.2-0.5-0.4-0.9-0.9-0.9h-4.3c-0.5,0-0.7,0.4-0.9,0.9v0L95,22c-0.2,0.5,0.4,0.9,0.9,0.9h3.3c0.5,0,0.7-0.4,0.9-0.9
		l0.8-2.4h8.9l0.9,2.5C110.7,22.6,111,22.9,111.4,22.9"/>
	<path clip-path="url(#SVGID_2_)" fill="#713911" d="M90,10.6c-0.2,0.6-0.5,1-0.8,1.3c-0.3,0.3-0.6,0.5-1,0.6
		c-0.3,0.1-0.6,0.1-0.8,0.1h-5.8V5h6.1c0.2,0,0.5,0,0.8,0.1c0.3,0.1,0.6,0.3,0.9,0.5c0.3,0.2,0.5,0.6,0.7,1c0.2,0.4,0.3,1,0.3,1.7
		C90.3,9.3,90.2,10.1,90,10.6 M94.2,4.6c-0.5-1-1.1-1.9-1.8-2.5c-0.7-0.6-1.5-1.1-2.3-1.4c-0.8-0.3-1.6-0.4-2.3-0.4h-9.8
		c-0.5,0-0.9,0.4-0.9,0.9v0V22c0,0.5,0.4,0.9,0.9,0.9h2.8c0.5,0,0.9-0.4,0.9-0.9v-4.8h5.7c0.1,0,0.4,0,0.7,0c0.3,0,0.8-0.1,1.3-0.2
		c0.5-0.1,1-0.4,1.6-0.6c0.6-0.3,1.1-0.7,1.6-1.2c1.6-1.6,2.4-3.8,2.4-6.7C94.9,6.9,94.7,5.6,94.2,4.6"/>
	<path clip-path="url(#SVGID_2_)" fill="#713911" d="M131.8,11.3c-0.3,0.4-0.6,0.7-0.9,0.9c-0.4,0.2-0.7,0.4-1.1,0.4
		c-0.4,0.1-0.7,0.1-0.9,0.1h-5.4V5h5.4c0.2,0,0.5,0,0.9,0.1c0.4,0.1,0.8,0.3,1.1,0.6c0.4,0.3,0.7,0.8,1,1.4c0.3,0.6,0.4,1.5,0.4,2.5
		C132.1,10.3,132,10.9,131.8,11.3 M133.3,21.1c0.1,0.4,0.1,0.7,0.2,1l0,0c0,0.5,0.4,0.9,0.9,0.9h2.8c0.5,0,0.9-0.4,0.9-0.9v0
		c0-0.4-0.1-0.8-0.1-1.2c-0.1-0.7-0.3-1.4-0.6-2.1c-0.3-0.7-0.6-1.4-1-2.1c-0.4-0.7-0.9-1.3-1.5-1.8c0.6-0.6,1-1.3,1.4-2.2
		c0.4-0.9,0.5-1.9,0.5-3c0-3-0.8-5.3-2.5-7c-0.6-0.6-1.1-1-1.7-1.3c-0.6-0.3-1.2-0.5-1.7-0.7c-0.5-0.2-0.9-0.2-1.3-0.3
		c-0.4,0-0.6,0-0.7,0h-9.1c-0.5,0-0.9,0.4-0.9,0.9l0,0v20.9c0,0.5,0.4,0.9,0.9,0.9h2.8c0.5,0,0.8-0.4,0.9-0.8v-4.7h5.4
		c0.7,0,1.4,0.1,1.9,0.3c0.5,0.2,1,0.5,1.3,0.9c0.4,0.4,0.6,0.8,0.8,1.2C133,20.2,133.2,20.7,133.3,21.1"/>
	<path clip-path="url(#SVGID_2_)" fill="#713911" d="M159.2,21.4c0,0.9-0.7,1.7-1.7,1.7c-0.9,0-1.7-0.8-1.7-1.7
		c0-0.9,0.7-1.7,1.7-1.7C158.5,19.8,159.2,20.5,159.2,21.4"/>
</g>
</svg>
