<svg xmlns="http://www.w3.org/2000/svg" xmlns:xlink="http://www.w3.org/1999/xlink" width="196.1" height="23.4" viewBox="0 0 196.1 23.4"><defs><path id="a" d="M.2.3h195.7v22.8H.2z"/></defs><clipPath id="b"><use xlink:href="#a" overflow="visible"/></clipPath><path clip-path="url(#b)" fill="#C99D66" d="M192.7 3.6c-1-1-2.2-1.8-3.5-2.4-1.3-.6-2.8-.9-4.3-.9s-3 .3-4.3.9c-.3.1-.5.2-.7.4l2.1 4.2c.2-.1.3-.2.5-.3.8-.4 1.6-.5 2.5-.5.9 0 1.7.2 2.5.5s1.5.8 2 1.4c.6.6 1 1.3 1.4 2.1.3.8.5 1.7.5 2.6 0 .9-.2 1.8-.5 2.6s-.8 1.5-1.4 2.1c-.5.5-1 .9-1.6 1.2l2.1 4.1c1-.6 2-1.2 2.8-2.1 1-1 1.8-2.2 2.4-3.6.6-1.4.9-2.8.9-4.4s-.3-3-.9-4.4c-.8-1.3-1.5-2.4-2.5-3.5M39.2 21.6l-2.1-4.2c-.2.1-.3.2-.5.3-.8.3-1.6.5-2.5.5-.9 0-1.7-.2-2.5-.5s-1.5-.8-2-1.4c-.6-.6-1-1.3-1.4-2.1-.3-.8-.5-1.7-.5-2.6s.2-1.8.5-2.6.8-1.5 1.4-2.1c.5-.5 1-.9 1.6-1.2l-2.1-4.1c-1 .5-2 1.2-2.8 2.1-1 1-1.8 2.2-2.4 3.6-.6 1.4-.9 2.8-.9 4.4 0 1.6.3 3 .9 4.4.6 1.4 1.4 2.6 2.4 3.6s2.2 1.8 3.5 2.4c1.3.6 2.8.9 4.3.9s3-.3 4.3-.9c.4-.2.6-.4.8-.5"/><path clip-path="url(#b)" fill="#713911" d="M187.8 17.5c-.1.1-.3.2-.4.2-.8.3-1.6.5-2.5.5-.9 0-1.7-.2-2.5-.5-.8-.4-1.5-.8-2.1-1.4-.6-.6-1.1-1.3-1.4-2.1-.3-.8-.5-1.7-.5-2.6 0-.9.2-1.8.5-2.6s.8-1.5 1.4-2.1c.5-.5 1-.9 1.6-1.2l-2.1-4.2c-1 .5-1.9 1.2-2.7 2.1-1 1-1.8 2.2-2.4 3.6-.6 1.4-.9 2.8-.9 4.4 0 1.6.3 3 .9 4.4.6 1.4 1.4 2.6 2.4 3.6s2.2 1.8 3.5 2.4c1.3.6 2.8.9 4.3.9s3-.3 4.3-.9c.2-.1.5-.2.7-.4l-2.1-4.1zM44.3 7.2C43.8 5.8 43 4.7 42 3.6c-1-1-2.2-1.8-3.5-2.4-1.3-.6-2.8-.9-4.3-.9s-3 .3-4.3.9c-.2.1-.5.2-.7.4l2.1 4.1c.1-.1.3-.2.4-.2.8-.4 1.6-.5 2.5-.5.9 0 1.7.2 2.5.5s1.5.8 2.1 1.4c.6.6 1.1 1.3 1.4 2.1.3.8.5 1.7.5 2.6 0 .9-.2 1.8-.5 2.6s-.8 1.5-1.4 2.1c-.5.5-1 .9-1.6 1.2l2.1 4.2c1-.6 1.9-1.2 2.7-2.1 1-1 1.8-2.2 2.4-3.6.6-1.4.9-2.8.9-4.4-.1-1.6-.4-3-1-4.4M20 18.3s.1-.1 0 0c.1-.1.1-.1.1-.2.2-.3.2-.8-.1-1.1l-2-2.1c-.3-.3-1-.4-1.2 0-.2.3-.3.6-.6.8-.4.5-.8.9-1.4 1.3-.5.4-1.1.7-1.7.9-.6.2-1.3.3-2 .3-.9 0-1.7-.2-2.5-.5s-1.5-.8-2.1-1.4c-.6-.6-1-1.3-1.4-2.1-.3-.8-.5-1.7-.5-2.6 0-.9.2-1.8.5-2.6.5-.8.9-1.5 1.5-2.1.6-.6 1.3-1.1 2.1-1.4.8-.4 1.6-.5 2.5-.5.7 0 1.3.1 2 .3.6.2 1.2.5 1.7.9s1 .8 1.4 1.3c.2.3.4.5.5.8.2.4.9.4 1.2 0l2-2.1c.3-.3.3-.7.2-1-.4-.6-.9-1.1-1.4-1.7-.7-.7-1.4-1.2-2.2-1.7C15.8 1.3 15 1 14 .7c-.9-.3-1.9-.4-2.9-.4-1.5 0-3 .3-4.3.9-1.2.6-2.4 1.4-3.4 2.4S1.6 5.8 1 7.2C.5 8.6.2 10 .2 11.6c0 1.6.3 3 .9 4.4.6 1.4 1.4 2.6 2.4 3.6S5.7 21.4 7 22c1.3.6 2.8.9 4.3.9 1 0 1.9-.1 2.9-.4.9-.3 1.8-.6 2.6-1.1.8-.5 1.5-1 2.2-1.7.3-.4.7-.9 1-1.4zM53.4.3h-3.5c-.5 0-.9.4-.9.9V22c0 .5.4.9.9.9h3c.5 0 .9-.4.9-.9V11.6L57.5 22c.2.5.4.9.9.9h3c.5 0 .7-.4.9-.9L66 11.7V22c0 .5.4.9.9.9h3c.5 0 .9-.4.9-.9V1.2c0-.5-.4-.9-.9-.9h-3.5c-.5 0-.7.4-.8.9l-5.5 14.6-5.9-14.6c-.1-.5-.3-.9-.8-.9M141.2.3c-.5 0-.8.4-.9.9v2.9c0 .5.4.9.9.9h4.3v17c0 .5.4.9.9.9h2.9c.5 0 .9-.4.9-.9V5h4.2c.5 0 .9-.4.9-.9V1.2c0-.5-.4-.9-.9-.9h-13.2zM168.9.4H166c-.5 0-.8.4-.8.9V22c0 .5.4.9.9.9h2.8c.5 0 .9-.4.9-.9V1.3c0-.5-.4-.9-.9-.9M102.4 14.9l2.8-8.1 2.8 8.1h-5.6zm9 8h3.3c.5 0 1-.4.9-.9l-7.3-20.8c-.2-.5-.4-.9-.9-.9h-4.3c-.5 0-.7.4-.9.9L95 22c-.2.5.4.9.9.9h3.3c.5 0 .7-.4.9-.9l.8-2.4h8.9l.9 2.5c0 .5.3.8.7.8M90 10.6c-.2.6-.5 1-.8 1.3-.3.3-.6.5-1 .6-.3.1-.6.1-.8.1h-5.8V5h6.1c.2 0 .5 0 .8.1.3.1.6.3.9.5.3.2.5.6.7 1 .2.4.3 1 .3 1.7-.1 1-.2 1.8-.4 2.3m4.2-6c-.5-1-1.1-1.9-1.8-2.5-.7-.6-1.5-1.1-2.3-1.4-.8-.3-1.6-.4-2.3-.4H78c-.5 0-.9.4-.9.9V22c0 .5.4.9.9.9h2.8c.5 0 .9-.4.9-.9v-4.8h6.4c.3 0 .8-.1 1.3-.2s1-.4 1.6-.6c.6-.3 1.1-.7 1.6-1.2 1.6-1.6 2.4-3.8 2.4-6.7-.1-1.6-.3-2.9-.8-3.9M131.8 11.3c-.3.4-.6.7-.9.9-.4.2-.7.4-1.1.4-.4.1-.7.1-.9.1h-5.4V5h5.4c.2 0 .5 0 .9.1s.8.3 1.1.6c.4.3.7.8 1 1.4.3.6.4 1.5.4 2.5-.2.7-.3 1.3-.5 1.7m1.5 9.8c.1.4.1.7.2 1 0 .5.4.9.9.9h2.8c.5 0 .9-.4.9-.9 0-.4-.1-.8-.1-1.2-.1-.7-.3-1.4-.6-2.1-.3-.7-.6-1.4-1-2.1-.4-.7-.9-1.3-1.5-1.8.6-.6 1-1.3 1.4-2.2.4-.9.5-1.9.5-3 0-3-.8-5.3-2.5-7-.6-.6-1.1-1-1.7-1.3-.6-.3-1.2-.5-1.7-.7-.5-.2-.9-.2-1.3-.3H119.8c-.5 0-.9.4-.9.9v20.9c0 .5.4.9.9.9h2.8c.5 0 .8-.4.9-.8v-4.7h5.4c.7 0 1.4.1 1.9.3.5.2 1 .5 1.3.9.4.4.6.8.8 1.2.1.2.3.7.4 1.1M159.2 21.4c0 .9-.7 1.7-1.7 1.7-.9 0-1.7-.8-1.7-1.7 0-.9.7-1.7 1.7-1.7 1 .1 1.7.8 1.7 1.7"/></svg>